<?xml version="1.0" encoding="utf-8" standalone="no"?>
<!DOCTYPE svg PUBLIC "-//W3C//DTD SVG 1.1//EN"
  "http://www.w3.org/Graphics/SVG/1.1/DTD/svg11.dtd">
<svg xmlns:xlink="http://www.w3.org/1999/xlink" width="1114.56pt" height="382.900594pt" viewBox="0 0 1114.56 382.900594" xmlns="http://www.w3.org/2000/svg" version="1.1">
 <metadata>
  <rdf:RDF xmlns:dc="http://purl.org/dc/elements/1.1/" xmlns:cc="http://creativecommons.org/ns#" xmlns:rdf="http://www.w3.org/1999/02/22-rdf-syntax-ns#">
   <cc:Work>
    <dc:type rdf:resource="http://purl.org/dc/dcmitype/StillImage"/>
    <dc:date>2026-07-19T16:56:38.095984</dc:date>
    <dc:format>image/svg+xml</dc:format>
    <dc:creator>
     <cc:Agent>
      <dc:title>Matplotlib v3.11.1, https://matplotlib.org/</dc:title>
     </cc:Agent>
    </dc:creator>
   </cc:Work>
  </rdf:RDF>
 </metadata>
 <defs>
  <style type="text/css">*{stroke-linejoin: round; stroke-linecap: butt}</style>
 </defs>
 <g id="figure_1">
  <g id="patch_1">
   <path d="M 0 382.900594 
L 1114.56 382.900594 
L 1114.56 0 
L 0 0 
z
" style="fill: #0d1117"/>
  </g>
  <g id="axes_1">
   <g id="patch_2">
    <path d="M 7.2 366.048 
L 351 366.048 
L 351 71.712 
L 7.2 71.712 
z
" style="fill: #141a22"/>
   </g>
   <g id="matplotlib.axis_1"/>
   <g id="matplotlib.axis_2"/>
   <g id="patch_3">
    <path d="M 7.2 366.048 
L 7.2 71.712 
" style="fill: none; stroke: #232a33; stroke-width: 0.8; stroke-linejoin: miter; stroke-linecap: square"/>
   </g>
   <g id="patch_4">
    <path d="M 351 366.048 
L 351 71.712 
" style="fill: none; stroke: #232a33; stroke-width: 0.8; stroke-linejoin: miter; stroke-linecap: square"/>
   </g>
   <g id="patch_5">
    <path d="M 7.2 366.048 
L 351 366.048 
" style="fill: none; stroke: #232a33; stroke-width: 0.8; stroke-linejoin: miter; stroke-linecap: square"/>
   </g>
   <g id="patch_6">
    <path d="M 7.2 71.712 
L 351 71.712 
" style="fill: none; stroke: #232a33; stroke-width: 0.8; stroke-linejoin: miter; stroke-linecap: square"/>
   </g>
   <g id="text_1">
    <!-- ✘ HIGH-RESISTANCE -->
    <g style="fill: #f85149" transform="translate(49.126829 104.109422) scale(0.11 -0.11)">
     <defs>
      <path id="DejaVuSans-Bold-fa8" d="M 4263 4731 
Q 4353 4731 4438 4638 
Q 4500 4569 4525 4388 
Q 4606 4391 4638 4375 
Q 4738 4338 4781 4294 
Q 4825 4253 4825 4188 
Q 4825 4063 4775 4013 
Q 4022 3328 3288 2350 
Q 3750 1713 4213 1206 
Q 4266 1150 4266 1075 
Q 4266 922 4172 841 
Q 4109 788 3994 781 
Q 3988 728 3944 619 
Q 3869 438 3769 438 
Q 3656 438 3563 513 
Q 3538 456 3494 422 
Q 3381 338 3297 338 
Q 3225 338 3144 425 
Q 2866 722 2488 1319 
Q 1769 503 1494 81 
Q 1441 0 1375 0 
Q 1316 -6 1259 113 
Q 1213 209 1206 250 
Q 1144 213 1088 213 
Q 1009 213 919 306 
Q 806 416 806 469 
Q 806 553 900 694 
Q 872 703 844 744 
Q 788 819 788 894 
Q 788 959 863 1056 
Q 1269 1606 1881 2269 
Q 1500 2859 1191 3694 
Q 1122 3884 1122 3972 
Q 1122 4053 1194 4206 
Q 1244 4306 1313 4306 
Q 1394 4306 1544 4184 
Q 1547 4228 1581 4306 
Q 1653 4463 1706 4463 
Q 1841 4463 1881 4381 
Q 2213 3769 2681 3188 
Q 3403 4013 4181 4694 
Q 4219 4731 4263 4731 
z
" transform="scale(0.015625)"/>
      <path id="DejaVuSans-Bold-3" transform="scale(0.015625)"/>
      <path id="DejaVuSans-Bold-2b" d="M 588 4666 
L 1791 4666 
L 1791 2888 
L 3566 2888 
L 3566 4666 
L 4769 4666 
L 4769 0 
L 3566 0 
L 3566 1978 
L 1791 1978 
L 1791 0 
L 588 0 
L 588 4666 
z
" transform="scale(0.015625)"/>
      <path id="DejaVuSans-Bold-2c" d="M 588 4666 
L 1791 4666 
L 1791 0 
L 588 0 
L 588 4666 
z
" transform="scale(0.015625)"/>
      <path id="DejaVuSans-Bold-2a" d="M 4781 347 
Q 4331 128 3847 18 
Q 3363 -91 2847 -91 
Q 1681 -91 1000 561 
Q 319 1213 319 2328 
Q 319 3456 1012 4103 
Q 1706 4750 2913 4750 
Q 3378 4750 3804 4662 
Q 4231 4575 4609 4403 
L 4609 3438 
Q 4219 3659 3833 3768 
Q 3447 3878 3059 3878 
Q 2341 3878 1952 3476 
Q 1563 3075 1563 2328 
Q 1563 1588 1938 1184 
Q 2313 781 3003 781 
Q 3191 781 3352 804 
Q 3513 828 3641 878 
L 3641 1784 
L 2906 1784 
L 2906 2591 
L 4781 2591 
L 4781 347 
z
" transform="scale(0.015625)"/>
      <path id="DejaVuSans-Bold-10" d="M 347 2297 
L 2309 2297 
L 2309 1388 
L 347 1388 
L 347 2297 
z
" transform="scale(0.015625)"/>
      <path id="DejaVuSans-Bold-35" d="M 2297 2597 
Q 2675 2597 2839 2737 
Q 3003 2878 3003 3200 
Q 3003 3519 2839 3656 
Q 2675 3794 2297 3794 
L 1791 3794 
L 1791 2597 
L 2297 2597 
z
M 1791 1766 
L 1791 0 
L 588 0 
L 588 4666 
L 2425 4666 
Q 3347 4666 3776 4356 
Q 4206 4047 4206 3378 
Q 4206 2916 3982 2619 
Q 3759 2322 3309 2181 
Q 3556 2125 3751 1926 
Q 3947 1728 4147 1325 
L 4800 0 
L 3519 0 
L 2950 1159 
Q 2778 1509 2601 1637 
Q 2425 1766 2131 1766 
L 1791 1766 
z
" transform="scale(0.015625)"/>
      <path id="DejaVuSans-Bold-28" d="M 588 4666 
L 3834 4666 
L 3834 3756 
L 1791 3756 
L 1791 2888 
L 3713 2888 
L 3713 1978 
L 1791 1978 
L 1791 909 
L 3903 909 
L 3903 0 
L 588 0 
L 588 4666 
z
" transform="scale(0.015625)"/>
      <path id="DejaVuSans-Bold-36" d="M 3834 4519 
L 3834 3531 
Q 3450 3703 3084 3790 
Q 2719 3878 2394 3878 
Q 1963 3878 1756 3759 
Q 1550 3641 1550 3391 
Q 1550 3203 1689 3098 
Q 1828 2994 2194 2919 
L 2706 2816 
Q 3484 2659 3812 2340 
Q 4141 2022 4141 1434 
Q 4141 663 3683 286 
Q 3225 -91 2284 -91 
Q 1841 -91 1394 -6 
Q 947 78 500 244 
L 500 1259 
Q 947 1022 1364 901 
Q 1781 781 2169 781 
Q 2563 781 2772 912 
Q 2981 1044 2981 1288 
Q 2981 1506 2839 1625 
Q 2697 1744 2272 1838 
L 1806 1941 
Q 1106 2091 782 2419 
Q 459 2747 459 3303 
Q 459 4000 909 4375 
Q 1359 4750 2203 4750 
Q 2588 4750 2994 4692 
Q 3400 4634 3834 4519 
z
" transform="scale(0.015625)"/>
      <path id="DejaVuSans-Bold-37" d="M 31 4666 
L 4331 4666 
L 4331 3756 
L 2784 3756 
L 2784 0 
L 1581 0 
L 1581 3756 
L 31 3756 
L 31 4666 
z
" transform="scale(0.015625)"/>
      <path id="DejaVuSans-Bold-24" d="M 3419 850 
L 1538 850 
L 1241 0 
L 31 0 
L 1759 4666 
L 3194 4666 
L 4922 0 
L 3713 0 
L 3419 850 
z
M 1838 1716 
L 3116 1716 
L 2478 3572 
L 1838 1716 
z
" transform="scale(0.015625)"/>
      <path id="DejaVuSans-Bold-31" d="M 588 4666 
L 1931 4666 
L 3628 1466 
L 3628 4666 
L 4769 4666 
L 4769 0 
L 3425 0 
L 1728 3200 
L 1728 0 
L 588 0 
L 588 4666 
z
" transform="scale(0.015625)"/>
      <path id="DejaVuSans-Bold-26" d="M 4288 256 
Q 3956 84 3597 -3 
Q 3238 -91 2847 -91 
Q 1681 -91 1000 561 
Q 319 1213 319 2328 
Q 319 3447 1000 4098 
Q 1681 4750 2847 4750 
Q 3238 4750 3597 4662 
Q 3956 4575 4288 4403 
L 4288 3438 
Q 3953 3666 3628 3772 
Q 3303 3878 2944 3878 
Q 2300 3878 1931 3465 
Q 1563 3053 1563 2328 
Q 1563 1606 1931 1193 
Q 2300 781 2944 781 
Q 3303 781 3628 887 
Q 3953 994 4288 1222 
L 4288 256 
z
" transform="scale(0.015625)"/>
     </defs>
     <use xlink:href="#DejaVuSans-Bold-fa8"/>
     <use xlink:href="#DejaVuSans-Bold-3" transform="translate(83.796875 0)"/>
     <use xlink:href="#DejaVuSans-Bold-2b" transform="translate(118.609375 0)"/>
     <use xlink:href="#DejaVuSans-Bold-2c" transform="translate(202.296875 0)"/>
     <use xlink:href="#DejaVuSans-Bold-2a" transform="translate(239.5 0)"/>
     <use xlink:href="#DejaVuSans-Bold-2b" transform="translate(321.578125 0)"/>
     <use xlink:href="#DejaVuSans-Bold-10" transform="translate(405.265625 0)"/>
     <use xlink:href="#DejaVuSans-Bold-35" transform="translate(446.765625 0)"/>
     <use xlink:href="#DejaVuSans-Bold-28" transform="translate(523.765625 0)"/>
     <use xlink:href="#DejaVuSans-Bold-36" transform="translate(592.078125 0)"/>
     <use xlink:href="#DejaVuSans-Bold-2c" transform="translate(664.09375 0)"/>
     <use xlink:href="#DejaVuSans-Bold-36" transform="translate(701.296875 0)"/>
     <use xlink:href="#DejaVuSans-Bold-37" transform="translate(773.3125 0)"/>
     <use xlink:href="#DejaVuSans-Bold-24" transform="translate(833.765625 0)"/>
     <use xlink:href="#DejaVuSans-Bold-31" transform="translate(911.15625 0)"/>
     <use xlink:href="#DejaVuSans-Bold-26" transform="translate(994.84375 0)"/>
     <use xlink:href="#DejaVuSans-Bold-28" transform="translate(1068.234375 0)"/>
    </g>
   </g>
   <g id="text_2">
    <!-- high swept, then rejected: -->
    <g style="fill: #9aa7b4" transform="translate(49.126829 296.355496) scale(0.086 -0.086)">
     <defs>
      <path id="DejaVuSans-4b" d="M 3513 2113 
L 3513 0 
L 2938 0 
L 2938 2094 
Q 2938 2591 2744 2837 
Q 2550 3084 2163 3084 
Q 1697 3084 1428 2787 
Q 1159 2491 1159 1978 
L 1159 0 
L 581 0 
L 581 4863 
L 1159 4863 
L 1159 2956 
Q 1366 3272 1645 3428 
Q 1925 3584 2291 3584 
Q 2894 3584 3203 3211 
Q 3513 2838 3513 2113 
z
" transform="scale(0.015625)"/>
      <path id="DejaVuSans-4c" d="M 603 3500 
L 1178 3500 
L 1178 0 
L 603 0 
L 603 3500 
z
M 603 4863 
L 1178 4863 
L 1178 4134 
L 603 4134 
L 603 4863 
z
" transform="scale(0.015625)"/>
      <path id="DejaVuSans-4a" d="M 2906 1791 
Q 2906 2416 2648 2759 
Q 2391 3103 1925 3103 
Q 1463 3103 1205 2759 
Q 947 2416 947 1791 
Q 947 1169 1205 825 
Q 1463 481 1925 481 
Q 2391 481 2648 825 
Q 2906 1169 2906 1791 
z
M 3481 434 
Q 3481 -459 3084 -895 
Q 2688 -1331 1869 -1331 
Q 1566 -1331 1297 -1286 
Q 1028 -1241 775 -1147 
L 775 -588 
Q 1028 -725 1275 -790 
Q 1522 -856 1778 -856 
Q 2344 -856 2625 -561 
Q 2906 -266 2906 331 
L 2906 616 
Q 2728 306 2450 153 
Q 2172 0 1784 0 
Q 1141 0 747 490 
Q 353 981 353 1791 
Q 353 2603 747 3093 
Q 1141 3584 1784 3584 
Q 2172 3584 2450 3431 
Q 2728 3278 2906 2969 
L 2906 3500 
L 3481 3500 
L 3481 434 
z
" transform="scale(0.015625)"/>
      <path id="DejaVuSans-3" transform="scale(0.015625)"/>
      <path id="DejaVuSans-56" d="M 2834 3397 
L 2834 2853 
Q 2591 2978 2328 3040 
Q 2066 3103 1784 3103 
Q 1356 3103 1142 2972 
Q 928 2841 928 2578 
Q 928 2378 1081 2264 
Q 1234 2150 1697 2047 
L 1894 2003 
Q 2506 1872 2764 1633 
Q 3022 1394 3022 966 
Q 3022 478 2636 193 
Q 2250 -91 1575 -91 
Q 1294 -91 989 -36 
Q 684 19 347 128 
L 347 722 
Q 666 556 975 473 
Q 1284 391 1588 391 
Q 1994 391 2212 530 
Q 2431 669 2431 922 
Q 2431 1156 2273 1281 
Q 2116 1406 1581 1522 
L 1381 1569 
Q 847 1681 609 1914 
Q 372 2147 372 2553 
Q 372 3047 722 3315 
Q 1072 3584 1716 3584 
Q 2034 3584 2315 3537 
Q 2597 3491 2834 3397 
z
" transform="scale(0.015625)"/>
      <path id="DejaVuSans-5a" d="M 269 3500 
L 844 3500 
L 1563 769 
L 2278 3500 
L 2956 3500 
L 3675 769 
L 4391 3500 
L 4966 3500 
L 4050 0 
L 3372 0 
L 2619 2869 
L 1863 0 
L 1184 0 
L 269 3500 
z
" transform="scale(0.015625)"/>
      <path id="DejaVuSans-48" d="M 3597 1894 
L 3597 1613 
L 953 1613 
Q 991 1019 1311 708 
Q 1631 397 2203 397 
Q 2534 397 2845 478 
Q 3156 559 3463 722 
L 3463 178 
Q 3153 47 2828 -22 
Q 2503 -91 2169 -91 
Q 1331 -91 842 396 
Q 353 884 353 1716 
Q 353 2575 817 3079 
Q 1281 3584 2069 3584 
Q 2775 3584 3186 3129 
Q 3597 2675 3597 1894 
z
M 3022 2063 
Q 3016 2534 2758 2815 
Q 2500 3097 2075 3097 
Q 1594 3097 1305 2825 
Q 1016 2553 972 2059 
L 3022 2063 
z
" transform="scale(0.015625)"/>
      <path id="DejaVuSans-53" d="M 1159 525 
L 1159 -1331 
L 581 -1331 
L 581 3500 
L 1159 3500 
L 1159 2969 
Q 1341 3281 1617 3432 
Q 1894 3584 2278 3584 
Q 2916 3584 3314 3078 
Q 3713 2572 3713 1747 
Q 3713 922 3314 415 
Q 2916 -91 2278 -91 
Q 1894 -91 1617 61 
Q 1341 213 1159 525 
z
M 3116 1747 
Q 3116 2381 2855 2742 
Q 2594 3103 2138 3103 
Q 1681 3103 1420 2742 
Q 1159 2381 1159 1747 
Q 1159 1113 1420 752 
Q 1681 391 2138 391 
Q 2594 391 2855 752 
Q 3116 1113 3116 1747 
z
" transform="scale(0.015625)"/>
      <path id="DejaVuSans-57" d="M 1172 4494 
L 1172 3500 
L 2356 3500 
L 2356 3053 
L 1172 3053 
L 1172 1153 
Q 1172 725 1289 603 
Q 1406 481 1766 481 
L 2356 481 
L 2356 0 
L 1766 0 
Q 1100 0 847 248 
Q 594 497 594 1153 
L 594 3053 
L 172 3053 
L 172 3500 
L 594 3500 
L 594 4494 
L 1172 4494 
z
" transform="scale(0.015625)"/>
      <path id="DejaVuSans-f" d="M 750 794 
L 1409 794 
L 1409 256 
L 897 -744 
L 494 -744 
L 750 256 
L 750 794 
z
" transform="scale(0.015625)"/>
      <path id="DejaVuSans-51" d="M 3513 2113 
L 3513 0 
L 2938 0 
L 2938 2094 
Q 2938 2591 2744 2837 
Q 2550 3084 2163 3084 
Q 1697 3084 1428 2787 
Q 1159 2491 1159 1978 
L 1159 0 
L 581 0 
L 581 3500 
L 1159 3500 
L 1159 2956 
Q 1366 3272 1645 3428 
Q 1925 3584 2291 3584 
Q 2894 3584 3203 3211 
Q 3513 2838 3513 2113 
z
" transform="scale(0.015625)"/>
      <path id="DejaVuSans-55" d="M 2631 2963 
Q 2534 3019 2420 3045 
Q 2306 3072 2169 3072 
Q 1681 3072 1420 2755 
Q 1159 2438 1159 1844 
L 1159 0 
L 581 0 
L 581 3500 
L 1159 3500 
L 1159 2956 
Q 1341 3275 1631 3429 
Q 1922 3584 2338 3584 
Q 2397 3584 2469 3576 
Q 2541 3569 2628 3553 
L 2631 2963 
z
" transform="scale(0.015625)"/>
      <path id="DejaVuSans-4d" d="M 603 3500 
L 1178 3500 
L 1178 -63 
Q 1178 -731 923 -1031 
Q 669 -1331 103 -1331 
L -116 -1331 
L -116 -844 
L 38 -844 
Q 366 -844 484 -692 
Q 603 -541 603 -63 
L 603 3500 
z
M 603 4863 
L 1178 4863 
L 1178 4134 
L 603 4134 
L 603 4863 
z
" transform="scale(0.015625)"/>
      <path id="DejaVuSans-46" d="M 3122 3366 
L 3122 2828 
Q 2878 2963 2633 3030 
Q 2388 3097 2138 3097 
Q 1578 3097 1268 2742 
Q 959 2388 959 1747 
Q 959 1106 1268 751 
Q 1578 397 2138 397 
Q 2388 397 2633 464 
Q 2878 531 3122 666 
L 3122 134 
Q 2881 22 2623 -34 
Q 2366 -91 2075 -91 
Q 1284 -91 818 406 
Q 353 903 353 1747 
Q 353 2603 823 3093 
Q 1294 3584 2113 3584 
Q 2378 3584 2631 3529 
Q 2884 3475 3122 3366 
z
" transform="scale(0.015625)"/>
      <path id="DejaVuSans-47" d="M 2906 2969 
L 2906 4863 
L 3481 4863 
L 3481 0 
L 2906 0 
L 2906 525 
Q 2725 213 2448 61 
Q 2172 -91 1784 -91 
Q 1150 -91 751 415 
Q 353 922 353 1747 
Q 353 2572 751 3078 
Q 1150 3584 1784 3584 
Q 2172 3584 2448 3432 
Q 2725 3281 2906 2969 
z
M 947 1747 
Q 947 1113 1208 752 
Q 1469 391 1925 391 
Q 2381 391 2643 752 
Q 2906 1113 2906 1747 
Q 2906 2381 2643 2742 
Q 2381 3103 1925 3103 
Q 1469 3103 1208 2742 
Q 947 2381 947 1747 
z
" transform="scale(0.015625)"/>
      <path id="DejaVuSans-1d" d="M 750 794 
L 1409 794 
L 1409 0 
L 750 0 
L 750 794 
z
M 750 3309 
L 1409 3309 
L 1409 2516 
L 750 2516 
L 750 3309 
z
" transform="scale(0.015625)"/>
     </defs>
     <use xlink:href="#DejaVuSans-4b"/>
     <use xlink:href="#DejaVuSans-4c" transform="translate(63.375 0)"/>
     <use xlink:href="#DejaVuSans-4a" transform="translate(91.15625 0)"/>
     <use xlink:href="#DejaVuSans-4b" transform="translate(154.640625 0)"/>
     <use xlink:href="#DejaVuSans-3" transform="translate(218.015625 0)"/>
     <use xlink:href="#DejaVuSans-56" transform="translate(249.796875 0)"/>
     <use xlink:href="#DejaVuSans-5a" transform="translate(301.890625 0)"/>
     <use xlink:href="#DejaVuSans-48" transform="translate(383.671875 0)"/>
     <use xlink:href="#DejaVuSans-53" transform="translate(445.203125 0)"/>
     <use xlink:href="#DejaVuSans-57" transform="translate(508.6875 0)"/>
     <use xlink:href="#DejaVuSans-f" transform="translate(547.890625 0)"/>
     <use xlink:href="#DejaVuSans-3" transform="translate(579.671875 0)"/>
     <use xlink:href="#DejaVuSans-57" transform="translate(611.453125 0)"/>
     <use xlink:href="#DejaVuSans-4b" transform="translate(650.65625 0)"/>
     <use xlink:href="#DejaVuSans-48" transform="translate(714.03125 0)"/>
     <use xlink:href="#DejaVuSans-51" transform="translate(775.5625 0)"/>
     <use xlink:href="#DejaVuSans-3" transform="translate(838.9375 0)"/>
     <use xlink:href="#DejaVuSans-55" transform="translate(870.71875 0)"/>
     <use xlink:href="#DejaVuSans-48" transform="translate(909.625 0)"/>
     <use xlink:href="#DejaVuSans-4d" transform="translate(971.15625 0)"/>
     <use xlink:href="#DejaVuSans-48" transform="translate(998.9375 0)"/>
     <use xlink:href="#DejaVuSans-46" transform="translate(1060.46875 0)"/>
     <use xlink:href="#DejaVuSans-57" transform="translate(1115.453125 0)"/>
     <use xlink:href="#DejaVuSans-48" transform="translate(1154.65625 0)"/>
     <use xlink:href="#DejaVuSans-47" transform="translate(1216.1875 0)"/>
     <use xlink:href="#DejaVuSans-1d" transform="translate(1279.671875 0)"/>
    </g>
    <!-- liquidity PURGED above -->
    <g style="fill: #9aa7b4" transform="translate(49.126829 306.677848) scale(0.086 -0.086)">
     <defs>
      <path id="DejaVuSans-4f" d="M 603 4863 
L 1178 4863 
L 1178 0 
L 603 0 
L 603 4863 
z
" transform="scale(0.015625)"/>
      <path id="DejaVuSans-54" d="M 947 1747 
Q 947 1113 1208 752 
Q 1469 391 1925 391 
Q 2381 391 2643 752 
Q 2906 1113 2906 1747 
Q 2906 2381 2643 2742 
Q 2381 3103 1925 3103 
Q 1469 3103 1208 2742 
Q 947 2381 947 1747 
z
M 2906 525 
Q 2725 213 2448 61 
Q 2172 -91 1784 -91 
Q 1150 -91 751 415 
Q 353 922 353 1747 
Q 353 2572 751 3078 
Q 1150 3584 1784 3584 
Q 2172 3584 2448 3432 
Q 2725 3281 2906 2969 
L 2906 3500 
L 3481 3500 
L 3481 -1331 
L 2906 -1331 
L 2906 525 
z
" transform="scale(0.015625)"/>
      <path id="DejaVuSans-58" d="M 544 1381 
L 544 3500 
L 1119 3500 
L 1119 1403 
Q 1119 906 1312 657 
Q 1506 409 1894 409 
Q 2359 409 2629 706 
Q 2900 1003 2900 1516 
L 2900 3500 
L 3475 3500 
L 3475 0 
L 2900 0 
L 2900 538 
Q 2691 219 2414 64 
Q 2138 -91 1772 -91 
Q 1169 -91 856 284 
Q 544 659 544 1381 
z
M 1991 3584 
L 1991 3584 
z
" transform="scale(0.015625)"/>
      <path id="DejaVuSans-5c" d="M 2059 -325 
Q 1816 -950 1584 -1140 
Q 1353 -1331 966 -1331 
L 506 -1331 
L 506 -850 
L 844 -850 
Q 1081 -850 1212 -737 
Q 1344 -625 1503 -206 
L 1606 56 
L 191 3500 
L 800 3500 
L 1894 763 
L 2988 3500 
L 3597 3500 
L 2059 -325 
z
" transform="scale(0.015625)"/>
      <path id="DejaVuSans-33" d="M 1259 4147 
L 1259 2394 
L 2053 2394 
Q 2494 2394 2734 2622 
Q 2975 2850 2975 3272 
Q 2975 3691 2734 3919 
Q 2494 4147 2053 4147 
L 1259 4147 
z
M 628 4666 
L 2053 4666 
Q 2838 4666 3239 4311 
Q 3641 3956 3641 3272 
Q 3641 2581 3239 2228 
Q 2838 1875 2053 1875 
L 1259 1875 
L 1259 0 
L 628 0 
L 628 4666 
z
" transform="scale(0.015625)"/>
      <path id="DejaVuSans-38" d="M 556 4666 
L 1191 4666 
L 1191 1831 
Q 1191 1081 1462 751 
Q 1734 422 2344 422 
Q 2950 422 3222 751 
Q 3494 1081 3494 1831 
L 3494 4666 
L 4128 4666 
L 4128 1753 
Q 4128 841 3676 375 
Q 3225 -91 2344 -91 
Q 1459 -91 1007 375 
Q 556 841 556 1753 
L 556 4666 
z
" transform="scale(0.015625)"/>
      <path id="DejaVuSans-35" d="M 2841 2188 
Q 3044 2119 3236 1894 
Q 3428 1669 3622 1275 
L 4263 0 
L 3584 0 
L 2988 1197 
Q 2756 1666 2539 1819 
Q 2322 1972 1947 1972 
L 1259 1972 
L 1259 0 
L 628 0 
L 628 4666 
L 2053 4666 
Q 2853 4666 3247 4331 
Q 3641 3997 3641 3322 
Q 3641 2881 3436 2590 
Q 3231 2300 2841 2188 
z
M 1259 4147 
L 1259 2491 
L 2053 2491 
Q 2509 2491 2742 2702 
Q 2975 2913 2975 3322 
Q 2975 3731 2742 3939 
Q 2509 4147 2053 4147 
L 1259 4147 
z
" transform="scale(0.015625)"/>
      <path id="DejaVuSans-2a" d="M 3809 666 
L 3809 1919 
L 2778 1919 
L 2778 2438 
L 4434 2438 
L 4434 434 
Q 4069 175 3628 42 
Q 3188 -91 2688 -91 
Q 1594 -91 976 548 
Q 359 1188 359 2328 
Q 359 3472 976 4111 
Q 1594 4750 2688 4750 
Q 3144 4750 3555 4637 
Q 3966 4525 4313 4306 
L 4313 3634 
Q 3963 3931 3569 4081 
Q 3175 4231 2741 4231 
Q 1884 4231 1454 3753 
Q 1025 3275 1025 2328 
Q 1025 1384 1454 906 
Q 1884 428 2741 428 
Q 3075 428 3337 486 
Q 3600 544 3809 666 
z
" transform="scale(0.015625)"/>
      <path id="DejaVuSans-28" d="M 628 4666 
L 3578 4666 
L 3578 4134 
L 1259 4134 
L 1259 2753 
L 3481 2753 
L 3481 2222 
L 1259 2222 
L 1259 531 
L 3634 531 
L 3634 0 
L 628 0 
L 628 4666 
z
" transform="scale(0.015625)"/>
      <path id="DejaVuSans-27" d="M 1259 4147 
L 1259 519 
L 2022 519 
Q 2988 519 3436 956 
Q 3884 1394 3884 2338 
Q 3884 3275 3436 3711 
Q 2988 4147 2022 4147 
L 1259 4147 
z
M 628 4666 
L 1925 4666 
Q 3281 4666 3915 4102 
Q 4550 3538 4550 2338 
Q 4550 1131 3912 565 
Q 3275 0 1925 0 
L 628 0 
L 628 4666 
z
" transform="scale(0.015625)"/>
      <path id="DejaVuSans-44" d="M 2194 1759 
Q 1497 1759 1228 1600 
Q 959 1441 959 1056 
Q 959 750 1161 570 
Q 1363 391 1709 391 
Q 2188 391 2477 730 
Q 2766 1069 2766 1631 
L 2766 1759 
L 2194 1759 
z
M 3341 1997 
L 3341 0 
L 2766 0 
L 2766 531 
Q 2569 213 2275 61 
Q 1981 -91 1556 -91 
Q 1019 -91 701 211 
Q 384 513 384 1019 
Q 384 1609 779 1909 
Q 1175 2209 1959 2209 
L 2766 2209 
L 2766 2266 
Q 2766 2663 2505 2880 
Q 2244 3097 1772 3097 
Q 1472 3097 1187 3025 
Q 903 2953 641 2809 
L 641 3341 
Q 956 3463 1253 3523 
Q 1550 3584 1831 3584 
Q 2591 3584 2966 3190 
Q 3341 2797 3341 1997 
z
" transform="scale(0.015625)"/>
      <path id="DejaVuSans-45" d="M 3116 1747 
Q 3116 2381 2855 2742 
Q 2594 3103 2138 3103 
Q 1681 3103 1420 2742 
Q 1159 2381 1159 1747 
Q 1159 1113 1420 752 
Q 1681 391 2138 391 
Q 2594 391 2855 752 
Q 3116 1113 3116 1747 
z
M 1159 2969 
Q 1341 3281 1617 3432 
Q 1894 3584 2278 3584 
Q 2916 3584 3314 3078 
Q 3713 2572 3713 1747 
Q 3713 922 3314 415 
Q 2916 -91 2278 -91 
Q 1894 -91 1617 61 
Q 1341 213 1159 525 
L 1159 0 
L 581 0 
L 581 4863 
L 1159 4863 
L 1159 2969 
z
" transform="scale(0.015625)"/>
      <path id="DejaVuSans-52" d="M 1959 3097 
Q 1497 3097 1228 2736 
Q 959 2375 959 1747 
Q 959 1119 1226 758 
Q 1494 397 1959 397 
Q 2419 397 2687 759 
Q 2956 1122 2956 1747 
Q 2956 2369 2687 2733 
Q 2419 3097 1959 3097 
z
M 1959 3584 
Q 2709 3584 3137 3096 
Q 3566 2609 3566 1747 
Q 3566 888 3137 398 
Q 2709 -91 1959 -91 
Q 1206 -91 779 398 
Q 353 888 353 1747 
Q 353 2609 779 3096 
Q 1206 3584 1959 3584 
z
" transform="scale(0.015625)"/>
      <path id="DejaVuSans-59" d="M 191 3500 
L 800 3500 
L 1894 563 
L 2988 3500 
L 3597 3500 
L 2284 0 
L 1503 0 
L 191 3500 
z
" transform="scale(0.015625)"/>
     </defs>
     <use xlink:href="#DejaVuSans-4f"/>
     <use xlink:href="#DejaVuSans-4c" transform="translate(27.78125 0)"/>
     <use xlink:href="#DejaVuSans-54" transform="translate(55.5625 0)"/>
     <use xlink:href="#DejaVuSans-58" transform="translate(119.046875 0)"/>
     <use xlink:href="#DejaVuSans-4c" transform="translate(182.421875 0)"/>
     <use xlink:href="#DejaVuSans-47" transform="translate(210.203125 0)"/>
     <use xlink:href="#DejaVuSans-4c" transform="translate(273.6875 0)"/>
     <use xlink:href="#DejaVuSans-57" transform="translate(301.46875 0)"/>
     <use xlink:href="#DejaVuSans-5c" transform="translate(340.671875 0)"/>
     <use xlink:href="#DejaVuSans-3" transform="translate(399.859375 0)"/>
     <use xlink:href="#DejaVuSans-33" transform="translate(431.640625 0)"/>
     <use xlink:href="#DejaVuSans-38" transform="translate(491.9375 0)"/>
     <use xlink:href="#DejaVuSans-35" transform="translate(565.125 0)"/>
     <use xlink:href="#DejaVuSans-2a" transform="translate(634.609375 0)"/>
     <use xlink:href="#DejaVuSans-28" transform="translate(712.09375 0)"/>
     <use xlink:href="#DejaVuSans-27" transform="translate(775.28125 0)"/>
     <use xlink:href="#DejaVuSans-3" transform="translate(852.28125 0)"/>
     <use xlink:href="#DejaVuSans-44" transform="translate(884.0625 0)"/>
     <use xlink:href="#DejaVuSans-45" transform="translate(945.34375 0)"/>
     <use xlink:href="#DejaVuSans-52" transform="translate(1008.828125 0)"/>
     <use xlink:href="#DejaVuSans-59" transform="translate(1070.015625 0)"/>
     <use xlink:href="#DejaVuSans-48" transform="translate(1129.203125 0)"/>
    </g>
    <!-- → old level = poor draw -->
    <g style="fill: #9aa7b4" transform="translate(49.126829 317.000199) scale(0.086 -0.086)">
     <defs>
      <path id="DejaVuSans-c1c" d="M 5050 2147 
L 5050 1866 
L 3822 638 
L 3447 1013 
L 4175 1741 
L 366 1741 
L 366 2272 
L 4175 2272 
L 3447 3000 
L 3822 3375 
L 5050 2147 
z
" transform="scale(0.015625)"/>
      <path id="DejaVuSans-20" d="M 678 2906 
L 4684 2906 
L 4684 2381 
L 678 2381 
L 678 2906 
z
M 678 1631 
L 4684 1631 
L 4684 1100 
L 678 1100 
L 678 1631 
z
" transform="scale(0.015625)"/>
     </defs>
     <use xlink:href="#DejaVuSans-c1c"/>
     <use xlink:href="#DejaVuSans-3" transform="translate(83.796875 0)"/>
     <use xlink:href="#DejaVuSans-52" transform="translate(115.578125 0)"/>
     <use xlink:href="#DejaVuSans-4f" transform="translate(176.765625 0)"/>
     <use xlink:href="#DejaVuSans-47" transform="translate(204.546875 0)"/>
     <use xlink:href="#DejaVuSans-3" transform="translate(268.03125 0)"/>
     <use xlink:href="#DejaVuSans-4f" transform="translate(299.8125 0)"/>
     <use xlink:href="#DejaVuSans-48" transform="translate(327.59375 0)"/>
     <use xlink:href="#DejaVuSans-59" transform="translate(389.125 0)"/>
     <use xlink:href="#DejaVuSans-48" transform="translate(448.3125 0)"/>
     <use xlink:href="#DejaVuSans-4f" transform="translate(509.84375 0)"/>
     <use xlink:href="#DejaVuSans-3" transform="translate(537.625 0)"/>
     <use xlink:href="#DejaVuSans-20" transform="translate(569.40625 0)"/>
     <use xlink:href="#DejaVuSans-3" transform="translate(653.203125 0)"/>
     <use xlink:href="#DejaVuSans-53" transform="translate(684.984375 0)"/>
     <use xlink:href="#DejaVuSans-52" transform="translate(748.46875 0)"/>
     <use xlink:href="#DejaVuSans-52" transform="translate(809.65625 0)"/>
     <use xlink:href="#DejaVuSans-55" transform="translate(870.84375 0)"/>
     <use xlink:href="#DejaVuSans-3" transform="translate(911.953125 0)"/>
     <use xlink:href="#DejaVuSans-47" transform="translate(943.734375 0)"/>
     <use xlink:href="#DejaVuSans-55" transform="translate(1007.21875 0)"/>
     <use xlink:href="#DejaVuSans-44" transform="translate(1048.328125 0)"/>
     <use xlink:href="#DejaVuSans-5a" transform="translate(1109.609375 0)"/>
    </g>
   </g>
   <g id="line2d_1">
    <path d="M 32.356098 324 
L 32.356098 239.904 
" clip-path="url(#pf824b68466)" style="fill: none; stroke: #26a69a; stroke-width: 1.2"/>
   </g>
   <g id="line2d_2">
    <path d="M 74.282927 288.96 
L 74.282927 211.872 
" clip-path="url(#pf824b68466)" style="fill: none; stroke: #ef5350; stroke-width: 1.2"/>
   </g>
   <g id="line2d_3">
    <path d="M 116.209756 295.968 
L 116.209756 225.888 
" clip-path="url(#pf824b68466)" style="fill: none; stroke: #26a69a; stroke-width: 1.2"/>
   </g>
   <g id="line2d_4">
    <path d="M 158.136585 246.912 
L 158.136585 155.808 
" clip-path="url(#pf824b68466)" style="fill: none; stroke: #26a69a; stroke-width: 1.2"/>
   </g>
   <g id="line2d_5">
    <path d="M 200.063415 267.936 
L 200.063415 162.816 
" clip-path="url(#pf824b68466)" style="fill: none; stroke: #ef5350; stroke-width: 1.2"/>
   </g>
   <g id="line2d_6">
    <path d="M 241.990244 316.992 
L 241.990244 239.904 
" clip-path="url(#pf824b68466)" style="fill: none; stroke: #ef5350; stroke-width: 1.2"/>
   </g>
   <g id="patch_7">
    <path d="M 19.35878 309.984 
L 45.353415 309.984 
L 45.353415 253.92 
L 19.35878 253.92 
z
" clip-path="url(#pf824b68466)" style="fill: #26a69a; stroke: #26a69a; stroke-linejoin: miter"/>
   </g>
   <g id="patch_8">
    <path d="M 61.28561 274.944 
L 87.280244 274.944 
L 87.280244 253.92 
L 61.28561 253.92 
z
" clip-path="url(#pf824b68466)" style="fill: #ef5350; stroke: #ef5350; stroke-linejoin: miter"/>
   </g>
   <g id="patch_9">
    <path d="M 103.212439 274.944 
L 129.207073 274.944 
L 129.207073 239.904 
L 103.212439 239.904 
z
" clip-path="url(#pf824b68466)" style="fill: #26a69a; stroke: #26a69a; stroke-linejoin: miter"/>
   </g>
   <g id="patch_10">
    <path d="M 145.139268 239.904 
L 171.133902 239.904 
L 171.133902 169.824 
L 145.139268 169.824 
z
" clip-path="url(#pf824b68466)" style="fill: #26a69a; stroke: #26a69a; stroke-linejoin: miter"/>
   </g>
   <g id="patch_11">
    <path d="M 187.066098 253.92 
L 213.060732 253.92 
L 213.060732 169.824 
L 187.066098 169.824 
z
" clip-path="url(#pf824b68466)" style="fill: #ef5350; stroke: #ef5350; stroke-linejoin: miter"/>
   </g>
   <g id="patch_12">
    <path d="M 228.992927 302.976 
L 254.987561 302.976 
L 254.987561 253.92 
L 228.992927 253.92 
z
" clip-path="url(#pf824b68466)" style="fill: #ef5350; stroke: #ef5350; stroke-linejoin: miter"/>
   </g>
   <g id="line2d_7">
    <path d="M 32.356098 239.904 
L 321.65122 239.904 
" clip-path="url(#pf824b68466)" style="fill: none; stroke-dasharray: 8.4,5.6; stroke-dashoffset: 0; stroke: #f85149; stroke-width: 1.4"/>
   </g>
   <g id="patch_13">
    <path d="M 76.237243 206.858098 
Q 75.331058 219.581358 74.551958 230.520284 
" clip-path="url(#pf824b68466)" style="fill: none; stroke: #f85149; stroke-width: 1.6; stroke-linecap: round"/>
    <path d="M 78.198546 224.363792 
L 74.551958 230.520284 
L 71.814717 223.909118 
z
" clip-path="url(#pf824b68466)" style="fill: #f85149; stroke: #f85149; stroke-width: 1.6; stroke-linecap: round"/>
   </g>
  </g>
  <g id="axes_2">
   <g id="patch_14">
    <path d="M 385.38 366.048 
L 729.18 366.048 
L 729.18 71.712 
L 385.38 71.712 
z
" style="fill: #141a22"/>
   </g>
   <g id="matplotlib.axis_3"/>
   <g id="matplotlib.axis_4"/>
   <g id="line2d_8">
    <path d="M 410.536098 326.8032 
L 494.389756 320.2624 
" clip-path="url(#p523370709f)" style="fill: none; stroke-dasharray: 2,2; stroke-dashoffset: 0; stroke: #bc8cff"/>
   </g>
   <g id="line2d_9">
    <path d="M 494.389756 320.2624 
L 578.243415 297.3696 
" clip-path="url(#p523370709f)" style="fill: none; stroke-dasharray: 2,2; stroke-dashoffset: 0; stroke: #bc8cff"/>
   </g>
   <g id="patch_15">
    <path d="M 385.38 366.048 
L 385.38 71.712 
" style="fill: none; stroke: #232a33; stroke-width: 0.8; stroke-linejoin: miter; stroke-linecap: square"/>
   </g>
   <g id="patch_16">
    <path d="M 729.18 366.048 
L 729.18 71.712 
" style="fill: none; stroke: #232a33; stroke-width: 0.8; stroke-linejoin: miter; stroke-linecap: square"/>
   </g>
   <g id="patch_17">
    <path d="M 385.38 366.048 
L 729.18 366.048 
" style="fill: none; stroke: #232a33; stroke-width: 0.8; stroke-linejoin: miter; stroke-linecap: square"/>
   </g>
   <g id="patch_18">
    <path d="M 385.38 71.712 
L 729.18 71.712 
" style="fill: none; stroke: #232a33; stroke-width: 0.8; stroke-linejoin: miter; stroke-linecap: square"/>
   </g>
   <g id="text_3">
    <!-- $ -->
    <g style="fill: #bc8cff" transform="translate(414.398885 347.73376) scale(0.13 -0.13)">
     <defs>
      <path id="DejaVuSans-Bold-7" d="M 2484 -941 
L 1978 -941 
L 1975 0 
Q 1584 16 1218 87 
Q 853 159 506 288 
L 506 1106 
Q 866 922 1233 823 
Q 1600 725 1978 713 
L 1978 1684 
L 1875 1703 
Q 1128 1834 814 2115 
Q 500 2397 500 2925 
Q 500 3484 883 3798 
Q 1266 4113 1975 4141 
L 1978 4863 
L 2484 4863 
L 2484 4153 
Q 2797 4128 3109 4075 
Q 3422 4022 3738 3938 
L 3738 3144 
Q 3425 3275 3112 3348 
Q 2800 3422 2484 3438 
L 2484 2541 
L 2584 2522 
Q 3378 2397 3698 2105 
Q 4019 1813 4019 1241 
Q 4019 666 3637 358 
Q 3256 50 2484 6 
L 2484 -941 
z
M 1978 2613 
L 1978 3428 
Q 1756 3416 1623 3308 
Q 1491 3200 1491 3034 
Q 1491 2850 1612 2745 
Q 1734 2641 1978 2613 
z
M 2484 1594 
L 2484 725 
Q 2756 728 2892 831 
Q 3028 934 3028 1141 
Q 3028 1353 2903 1458 
Q 2778 1563 2484 1594 
z
" transform="scale(0.015625)"/>
     </defs>
     <use xlink:href="#DejaVuSans-Bold-7"/>
    </g>
   </g>
   <g id="text_4">
    <!-- $ -->
    <g style="fill: #bc8cff" transform="translate(494.059861 345.11744) scale(0.13 -0.13)">
     <use xlink:href="#DejaVuSans-Bold-7"/>
    </g>
   </g>
   <g id="text_5">
    <!-- ✔ LOW-RESISTANCE -->
    <g style="fill: #3fb950" transform="translate(427.306829 101.773422) scale(0.11 -0.11)">
     <defs>
      <path id="DejaVuSans-Bold-fa4" d="M 1416 2481 
Q 1538 2481 1600 2281 
Q 1725 1903 1778 1906 
Q 1819 1906 1863 1969 
Q 2741 3259 3488 3806 
Q 3803 4038 4103 4038 
Q 4500 4038 4581 4013 
Q 4616 4003 4616 3934 
Q 4616 3878 4544 3794 
Q 2534 1488 2150 794 
Q 2019 556 1544 556 
Q 1388 556 1216 638 
Q 1144 675 966 1116 
Q 741 1672 741 2091 
Q 741 2244 959 2344 
Q 1266 2484 1416 2481 
z
" transform="scale(0.015625)"/>
      <path id="DejaVuSans-Bold-2f" d="M 588 4666 
L 1791 4666 
L 1791 909 
L 3903 909 
L 3903 0 
L 588 0 
L 588 4666 
z
" transform="scale(0.015625)"/>
      <path id="DejaVuSans-Bold-32" d="M 2719 3878 
Q 2169 3878 1866 3472 
Q 1563 3066 1563 2328 
Q 1563 1594 1866 1187 
Q 2169 781 2719 781 
Q 3272 781 3575 1187 
Q 3878 1594 3878 2328 
Q 3878 3066 3575 3472 
Q 3272 3878 2719 3878 
z
M 2719 4750 
Q 3844 4750 4481 4106 
Q 5119 3463 5119 2328 
Q 5119 1197 4481 553 
Q 3844 -91 2719 -91 
Q 1597 -91 958 553 
Q 319 1197 319 2328 
Q 319 3463 958 4106 
Q 1597 4750 2719 4750 
z
" transform="scale(0.015625)"/>
      <path id="DejaVuSans-Bold-3a" d="M 191 4666 
L 1344 4666 
L 2150 1275 
L 2950 4666 
L 4109 4666 
L 4909 1275 
L 5716 4666 
L 6859 4666 
L 5759 0 
L 4372 0 
L 3525 3547 
L 2688 0 
L 1300 0 
L 191 4666 
z
" transform="scale(0.015625)"/>
     </defs>
     <use xlink:href="#DejaVuSans-Bold-fa4"/>
     <use xlink:href="#DejaVuSans-Bold-3" transform="translate(83.796875 0)"/>
     <use xlink:href="#DejaVuSans-Bold-2f" transform="translate(118.609375 0)"/>
     <use xlink:href="#DejaVuSans-Bold-32" transform="translate(178.765625 0)"/>
     <use xlink:href="#DejaVuSans-Bold-3a" transform="translate(263.78125 0)"/>
     <use xlink:href="#DejaVuSans-Bold-10" transform="translate(369.59375 0)"/>
     <use xlink:href="#DejaVuSans-Bold-35" transform="translate(411.09375 0)"/>
     <use xlink:href="#DejaVuSans-Bold-28" transform="translate(488.09375 0)"/>
     <use xlink:href="#DejaVuSans-Bold-36" transform="translate(556.40625 0)"/>
     <use xlink:href="#DejaVuSans-Bold-2c" transform="translate(628.421875 0)"/>
     <use xlink:href="#DejaVuSans-Bold-36" transform="translate(665.625 0)"/>
     <use xlink:href="#DejaVuSans-Bold-37" transform="translate(737.640625 0)"/>
     <use xlink:href="#DejaVuSans-Bold-24" transform="translate(798.09375 0)"/>
     <use xlink:href="#DejaVuSans-Bold-31" transform="translate(875.484375 0)"/>
     <use xlink:href="#DejaVuSans-Bold-26" transform="translate(959.171875 0)"/>
     <use xlink:href="#DejaVuSans-Bold-28" transform="translate(1032.5625 0)"/>
    </g>
   </g>
   <g id="text_6">
    <!-- low → equal low → higher low -->
    <g style="fill: #9aa7b4" transform="translate(423.114146 143.035348) scale(0.084 -0.084)">
     <use xlink:href="#DejaVuSans-4f"/>
     <use xlink:href="#DejaVuSans-52" transform="translate(27.78125 0)"/>
     <use xlink:href="#DejaVuSans-5a" transform="translate(88.96875 0)"/>
     <use xlink:href="#DejaVuSans-3" transform="translate(170.75 0)"/>
     <use xlink:href="#DejaVuSans-c1c" transform="translate(202.53125 0)"/>
     <use xlink:href="#DejaVuSans-3" transform="translate(286.328125 0)"/>
     <use xlink:href="#DejaVuSans-48" transform="translate(318.109375 0)"/>
     <use xlink:href="#DejaVuSans-54" transform="translate(379.640625 0)"/>
     <use xlink:href="#DejaVuSans-58" transform="translate(443.125 0)"/>
     <use xlink:href="#DejaVuSans-44" transform="translate(506.5 0)"/>
     <use xlink:href="#DejaVuSans-4f" transform="translate(567.78125 0)"/>
     <use xlink:href="#DejaVuSans-3" transform="translate(595.5625 0)"/>
     <use xlink:href="#DejaVuSans-4f" transform="translate(627.34375 0)"/>
     <use xlink:href="#DejaVuSans-52" transform="translate(655.125 0)"/>
     <use xlink:href="#DejaVuSans-5a" transform="translate(716.3125 0)"/>
     <use xlink:href="#DejaVuSans-3" transform="translate(798.09375 0)"/>
     <use xlink:href="#DejaVuSans-c1c" transform="translate(829.875 0)"/>
     <use xlink:href="#DejaVuSans-3" transform="translate(913.671875 0)"/>
     <use xlink:href="#DejaVuSans-4b" transform="translate(945.453125 0)"/>
     <use xlink:href="#DejaVuSans-4c" transform="translate(1008.828125 0)"/>
     <use xlink:href="#DejaVuSans-4a" transform="translate(1036.609375 0)"/>
     <use xlink:href="#DejaVuSans-4b" transform="translate(1100.09375 0)"/>
     <use xlink:href="#DejaVuSans-48" transform="translate(1163.46875 0)"/>
     <use xlink:href="#DejaVuSans-55" transform="translate(1225 0)"/>
     <use xlink:href="#DejaVuSans-3" transform="translate(1266.109375 0)"/>
     <use xlink:href="#DejaVuSans-4f" transform="translate(1297.890625 0)"/>
     <use xlink:href="#DejaVuSans-52" transform="translate(1325.671875 0)"/>
     <use xlink:href="#DejaVuSans-5a" transform="translate(1386.859375 0)"/>
    </g>
    <!-- (failure swing): stops REST below -->
    <g style="fill: #9aa7b4" transform="translate(423.114146 153.117645) scale(0.084 -0.084)">
     <defs>
      <path id="DejaVuSans-b" d="M 1984 4856 
Q 1566 4138 1362 3434 
Q 1159 2731 1159 2009 
Q 1159 1288 1364 580 
Q 1569 -128 1984 -844 
L 1484 -844 
Q 1016 -109 783 600 
Q 550 1309 550 2009 
Q 550 2706 781 3412 
Q 1013 4119 1484 4856 
L 1984 4856 
z
" transform="scale(0.015625)"/>
      <path id="DejaVuSans-49" d="M 2375 4863 
L 2375 4384 
L 1825 4384 
Q 1516 4384 1395 4259 
Q 1275 4134 1275 3809 
L 1275 3500 
L 2222 3500 
L 2222 3053 
L 1275 3053 
L 1275 0 
L 697 0 
L 697 3053 
L 147 3053 
L 147 3500 
L 697 3500 
L 697 3744 
Q 697 4328 969 4595 
Q 1241 4863 1831 4863 
L 2375 4863 
z
" transform="scale(0.015625)"/>
      <path id="DejaVuSans-c" d="M 513 4856 
L 1013 4856 
Q 1481 4119 1714 3412 
Q 1947 2706 1947 2009 
Q 1947 1309 1714 600 
Q 1481 -109 1013 -844 
L 513 -844 
Q 928 -128 1133 580 
Q 1338 1288 1338 2009 
Q 1338 2731 1133 3434 
Q 928 4138 513 4856 
z
" transform="scale(0.015625)"/>
      <path id="DejaVuSans-36" d="M 3425 4513 
L 3425 3897 
Q 3066 4069 2747 4153 
Q 2428 4238 2131 4238 
Q 1616 4238 1336 4038 
Q 1056 3838 1056 3469 
Q 1056 3159 1242 3001 
Q 1428 2844 1947 2747 
L 2328 2669 
Q 3034 2534 3370 2195 
Q 3706 1856 3706 1288 
Q 3706 609 3251 259 
Q 2797 -91 1919 -91 
Q 1588 -91 1214 -16 
Q 841 59 441 206 
L 441 856 
Q 825 641 1194 531 
Q 1563 422 1919 422 
Q 2459 422 2753 634 
Q 3047 847 3047 1241 
Q 3047 1584 2836 1778 
Q 2625 1972 2144 2069 
L 1759 2144 
Q 1053 2284 737 2584 
Q 422 2884 422 3419 
Q 422 4038 858 4394 
Q 1294 4750 2059 4750 
Q 2388 4750 2728 4690 
Q 3069 4631 3425 4513 
z
" transform="scale(0.015625)"/>
      <path id="DejaVuSans-37" d="M -19 4666 
L 3928 4666 
L 3928 4134 
L 2272 4134 
L 2272 0 
L 1638 0 
L 1638 4134 
L -19 4134 
L -19 4666 
z
" transform="scale(0.015625)"/>
     </defs>
     <use xlink:href="#DejaVuSans-b"/>
     <use xlink:href="#DejaVuSans-49" transform="translate(39.015625 0)"/>
     <use xlink:href="#DejaVuSans-44" transform="translate(74.21875 0)"/>
     <use xlink:href="#DejaVuSans-4c" transform="translate(135.5 0)"/>
     <use xlink:href="#DejaVuSans-4f" transform="translate(163.28125 0)"/>
     <use xlink:href="#DejaVuSans-58" transform="translate(191.0625 0)"/>
     <use xlink:href="#DejaVuSans-55" transform="translate(254.4375 0)"/>
     <use xlink:href="#DejaVuSans-48" transform="translate(293.34375 0)"/>
     <use xlink:href="#DejaVuSans-3" transform="translate(354.875 0)"/>
     <use xlink:href="#DejaVuSans-56" transform="translate(386.65625 0)"/>
     <use xlink:href="#DejaVuSans-5a" transform="translate(438.75 0)"/>
     <use xlink:href="#DejaVuSans-4c" transform="translate(520.53125 0)"/>
     <use xlink:href="#DejaVuSans-51" transform="translate(548.3125 0)"/>
     <use xlink:href="#DejaVuSans-4a" transform="translate(611.6875 0)"/>
     <use xlink:href="#DejaVuSans-c" transform="translate(675.171875 0)"/>
     <use xlink:href="#DejaVuSans-1d" transform="translate(714.1875 0)"/>
     <use xlink:href="#DejaVuSans-3" transform="translate(747.875 0)"/>
     <use xlink:href="#DejaVuSans-56" transform="translate(779.65625 0)"/>
     <use xlink:href="#DejaVuSans-57" transform="translate(831.75 0)"/>
     <use xlink:href="#DejaVuSans-52" transform="translate(870.953125 0)"/>
     <use xlink:href="#DejaVuSans-53" transform="translate(932.140625 0)"/>
     <use xlink:href="#DejaVuSans-56" transform="translate(995.625 0)"/>
     <use xlink:href="#DejaVuSans-3" transform="translate(1047.71875 0)"/>
     <use xlink:href="#DejaVuSans-35" transform="translate(1079.5 0)"/>
     <use xlink:href="#DejaVuSans-28" transform="translate(1148.984375 0)"/>
     <use xlink:href="#DejaVuSans-36" transform="translate(1212.171875 0)"/>
     <use xlink:href="#DejaVuSans-37" transform="translate(1275.65625 0)"/>
     <use xlink:href="#DejaVuSans-3" transform="translate(1336.734375 0)"/>
     <use xlink:href="#DejaVuSans-45" transform="translate(1368.515625 0)"/>
     <use xlink:href="#DejaVuSans-48" transform="translate(1432 0)"/>
     <use xlink:href="#DejaVuSans-4f" transform="translate(1493.53125 0)"/>
     <use xlink:href="#DejaVuSans-52" transform="translate(1521.3125 0)"/>
     <use xlink:href="#DejaVuSans-5a" transform="translate(1582.5 0)"/>
    </g>
    <!-- each pool → an easy run: -->
    <g style="fill: #9aa7b4" transform="translate(423.114146 163.199942) scale(0.084 -0.084)">
     <use xlink:href="#DejaVuSans-48"/>
     <use xlink:href="#DejaVuSans-44" transform="translate(61.53125 0)"/>
     <use xlink:href="#DejaVuSans-46" transform="translate(122.8125 0)"/>
     <use xlink:href="#DejaVuSans-4b" transform="translate(177.796875 0)"/>
     <use xlink:href="#DejaVuSans-3" transform="translate(241.171875 0)"/>
     <use xlink:href="#DejaVuSans-53" transform="translate(272.953125 0)"/>
     <use xlink:href="#DejaVuSans-52" transform="translate(336.4375 0)"/>
     <use xlink:href="#DejaVuSans-52" transform="translate(397.625 0)"/>
     <use xlink:href="#DejaVuSans-4f" transform="translate(458.8125 0)"/>
     <use xlink:href="#DejaVuSans-3" transform="translate(486.59375 0)"/>
     <use xlink:href="#DejaVuSans-c1c" transform="translate(518.375 0)"/>
     <use xlink:href="#DejaVuSans-3" transform="translate(602.171875 0)"/>
     <use xlink:href="#DejaVuSans-44" transform="translate(633.953125 0)"/>
     <use xlink:href="#DejaVuSans-51" transform="translate(695.234375 0)"/>
     <use xlink:href="#DejaVuSans-3" transform="translate(758.609375 0)"/>
     <use xlink:href="#DejaVuSans-48" transform="translate(790.390625 0)"/>
     <use xlink:href="#DejaVuSans-44" transform="translate(851.921875 0)"/>
     <use xlink:href="#DejaVuSans-56" transform="translate(913.203125 0)"/>
     <use xlink:href="#DejaVuSans-5c" transform="translate(965.296875 0)"/>
     <use xlink:href="#DejaVuSans-3" transform="translate(1024.484375 0)"/>
     <use xlink:href="#DejaVuSans-55" transform="translate(1056.265625 0)"/>
     <use xlink:href="#DejaVuSans-58" transform="translate(1097.375 0)"/>
     <use xlink:href="#DejaVuSans-51" transform="translate(1160.75 0)"/>
     <use xlink:href="#DejaVuSans-1d" transform="translate(1224.125 0)"/>
    </g>
    <!-- the DRAW ON LIQUIDITY = target -->
    <g style="fill: #9aa7b4" transform="translate(423.114146 173.282238) scale(0.084 -0.084)">
     <defs>
      <path id="DejaVuSans-24" d="M 2188 4044 
L 1331 1722 
L 3047 1722 
L 2188 4044 
z
M 1831 4666 
L 2547 4666 
L 4325 0 
L 3669 0 
L 3244 1197 
L 1141 1197 
L 716 0 
L 50 0 
L 1831 4666 
z
" transform="scale(0.015625)"/>
      <path id="DejaVuSans-3a" d="M 213 4666 
L 850 4666 
L 1831 722 
L 2809 4666 
L 3519 4666 
L 4500 722 
L 5478 4666 
L 6119 4666 
L 4947 0 
L 4153 0 
L 3169 4050 
L 2175 0 
L 1381 0 
L 213 4666 
z
" transform="scale(0.015625)"/>
      <path id="DejaVuSans-32" d="M 2522 4238 
Q 1834 4238 1429 3725 
Q 1025 3213 1025 2328 
Q 1025 1447 1429 934 
Q 1834 422 2522 422 
Q 3209 422 3611 934 
Q 4013 1447 4013 2328 
Q 4013 3213 3611 3725 
Q 3209 4238 2522 4238 
z
M 2522 4750 
Q 3503 4750 4090 4092 
Q 4678 3434 4678 2328 
Q 4678 1225 4090 567 
Q 3503 -91 2522 -91 
Q 1538 -91 948 565 
Q 359 1222 359 2328 
Q 359 3434 948 4092 
Q 1538 4750 2522 4750 
z
" transform="scale(0.015625)"/>
      <path id="DejaVuSans-31" d="M 628 4666 
L 1478 4666 
L 3547 763 
L 3547 4666 
L 4159 4666 
L 4159 0 
L 3309 0 
L 1241 3903 
L 1241 0 
L 628 0 
L 628 4666 
z
" transform="scale(0.015625)"/>
      <path id="DejaVuSans-2f" d="M 628 4666 
L 1259 4666 
L 1259 531 
L 3531 531 
L 3531 0 
L 628 0 
L 628 4666 
z
" transform="scale(0.015625)"/>
      <path id="DejaVuSans-2c" d="M 628 4666 
L 1259 4666 
L 1259 0 
L 628 0 
L 628 4666 
z
" transform="scale(0.015625)"/>
      <path id="DejaVuSans-34" d="M 2522 4238 
Q 1834 4238 1429 3725 
Q 1025 3213 1025 2328 
Q 1025 1447 1429 934 
Q 1834 422 2522 422 
Q 3209 422 3611 934 
Q 4013 1447 4013 2328 
Q 4013 3213 3611 3725 
Q 3209 4238 2522 4238 
z
M 3406 84 
L 4238 -825 
L 3475 -825 
L 2784 -78 
Q 2681 -84 2626 -87 
Q 2572 -91 2522 -91 
Q 1538 -91 948 567 
Q 359 1225 359 2328 
Q 359 3434 948 4092 
Q 1538 4750 2522 4750 
Q 3503 4750 4090 4092 
Q 4678 3434 4678 2328 
Q 4678 1516 4351 937 
Q 4025 359 3406 84 
z
" transform="scale(0.015625)"/>
      <path id="DejaVuSans-3c" d="M -13 4666 
L 666 4666 
L 1959 2747 
L 3244 4666 
L 3922 4666 
L 2272 2222 
L 2272 0 
L 1638 0 
L 1638 2222 
L -13 4666 
z
" transform="scale(0.015625)"/>
     </defs>
     <use xlink:href="#DejaVuSans-57"/>
     <use xlink:href="#DejaVuSans-4b" transform="translate(39.203125 0)"/>
     <use xlink:href="#DejaVuSans-48" transform="translate(102.578125 0)"/>
     <use xlink:href="#DejaVuSans-3" transform="translate(164.109375 0)"/>
     <use xlink:href="#DejaVuSans-27" transform="translate(195.890625 0)"/>
     <use xlink:href="#DejaVuSans-35" transform="translate(272.890625 0)"/>
     <use xlink:href="#DejaVuSans-24" transform="translate(338.328125 0)"/>
     <use xlink:href="#DejaVuSans-3a" transform="translate(401.265625 0)"/>
     <use xlink:href="#DejaVuSans-3" transform="translate(500.140625 0)"/>
     <use xlink:href="#DejaVuSans-32" transform="translate(531.921875 0)"/>
     <use xlink:href="#DejaVuSans-31" transform="translate(610.640625 0)"/>
     <use xlink:href="#DejaVuSans-3" transform="translate(685.453125 0)"/>
     <use xlink:href="#DejaVuSans-2f" transform="translate(717.234375 0)"/>
     <use xlink:href="#DejaVuSans-2c" transform="translate(772.953125 0)"/>
     <use xlink:href="#DejaVuSans-34" transform="translate(802.453125 0)"/>
     <use xlink:href="#DejaVuSans-38" transform="translate(881.171875 0)"/>
     <use xlink:href="#DejaVuSans-2c" transform="translate(954.359375 0)"/>
     <use xlink:href="#DejaVuSans-27" transform="translate(983.859375 0)"/>
     <use xlink:href="#DejaVuSans-2c" transform="translate(1060.859375 0)"/>
     <use xlink:href="#DejaVuSans-37" transform="translate(1090.359375 0)"/>
     <use xlink:href="#DejaVuSans-3c" transform="translate(1151.4375 0)"/>
     <use xlink:href="#DejaVuSans-3" transform="translate(1212.515625 0)"/>
     <use xlink:href="#DejaVuSans-20" transform="translate(1244.296875 0)"/>
     <use xlink:href="#DejaVuSans-3" transform="translate(1328.09375 0)"/>
     <use xlink:href="#DejaVuSans-57" transform="translate(1359.875 0)"/>
     <use xlink:href="#DejaVuSans-44" transform="translate(1399.078125 0)"/>
     <use xlink:href="#DejaVuSans-55" transform="translate(1460.359375 0)"/>
     <use xlink:href="#DejaVuSans-4a" transform="translate(1499.71875 0)"/>
     <use xlink:href="#DejaVuSans-48" transform="translate(1563.203125 0)"/>
     <use xlink:href="#DejaVuSans-57" transform="translate(1624.734375 0)"/>
    </g>
   </g>
   <g id="text_7">
    <!-- Liquidity map — what is a valid draw? -->
    <g style="fill: #f0f6fc" transform="translate(24.39 42.16512) scale(0.12 -0.12)">
     <defs>
      <path id="DejaVuSans-Bold-4c" d="M 538 3500 
L 1656 3500 
L 1656 0 
L 538 0 
L 538 3500 
z
M 538 4863 
L 1656 4863 
L 1656 3950 
L 538 3950 
L 538 4863 
z
" transform="scale(0.015625)"/>
      <path id="DejaVuSans-Bold-54" d="M 2181 2772 
Q 1825 2772 1636 2509 
Q 1447 2247 1447 1747 
Q 1447 1247 1636 984 
Q 1825 722 2181 722 
Q 2541 722 2730 984 
Q 2919 1247 2919 1747 
Q 2919 2247 2730 2509 
Q 2541 2772 2181 2772 
z
M 2919 506 
Q 2688 197 2409 53 
Q 2131 -91 1766 -91 
Q 1119 -91 703 423 
Q 288 938 288 1747 
Q 288 2556 703 3067 
Q 1119 3578 1766 3578 
Q 2131 3578 2409 3434 
Q 2688 3291 2919 2981 
L 2919 3500 
L 4044 3500 
L 4044 -1331 
L 2919 -1331 
L 2919 506 
z
" transform="scale(0.015625)"/>
      <path id="DejaVuSans-Bold-58" d="M 500 1363 
L 500 3500 
L 1625 3500 
L 1625 3150 
Q 1625 2866 1622 2436 
Q 1619 2006 1619 1863 
Q 1619 1441 1641 1255 
Q 1663 1069 1716 984 
Q 1784 875 1895 815 
Q 2006 756 2150 756 
Q 2500 756 2700 1025 
Q 2900 1294 2900 1772 
L 2900 3500 
L 4019 3500 
L 4019 0 
L 2900 0 
L 2900 506 
Q 2647 200 2364 54 
Q 2081 -91 1741 -91 
Q 1134 -91 817 281 
Q 500 653 500 1363 
z
" transform="scale(0.015625)"/>
      <path id="DejaVuSans-Bold-47" d="M 2919 2988 
L 2919 4863 
L 4044 4863 
L 4044 0 
L 2919 0 
L 2919 506 
Q 2688 197 2409 53 
Q 2131 -91 1766 -91 
Q 1119 -91 703 423 
Q 288 938 288 1747 
Q 288 2556 703 3070 
Q 1119 3584 1766 3584 
Q 2128 3584 2408 3439 
Q 2688 3294 2919 2988 
z
M 2181 722 
Q 2541 722 2730 984 
Q 2919 1247 2919 1747 
Q 2919 2247 2730 2509 
Q 2541 2772 2181 2772 
Q 1825 2772 1636 2509 
Q 1447 2247 1447 1747 
Q 1447 1247 1636 984 
Q 1825 722 2181 722 
z
" transform="scale(0.015625)"/>
      <path id="DejaVuSans-Bold-57" d="M 1759 4494 
L 1759 3500 
L 2913 3500 
L 2913 2700 
L 1759 2700 
L 1759 1216 
Q 1759 972 1856 886 
Q 1953 800 2241 800 
L 2816 800 
L 2816 0 
L 1856 0 
Q 1194 0 917 276 
Q 641 553 641 1216 
L 641 2700 
L 84 2700 
L 84 3500 
L 641 3500 
L 641 4494 
L 1759 4494 
z
" transform="scale(0.015625)"/>
      <path id="DejaVuSans-Bold-5c" d="M 78 3500 
L 1197 3500 
L 2138 1125 
L 2938 3500 
L 4056 3500 
L 2584 -331 
Q 2363 -916 2067 -1148 
Q 1772 -1381 1288 -1381 
L 641 -1381 
L 641 -647 
L 991 -647 
Q 1275 -647 1404 -556 
Q 1534 -466 1606 -231 
L 1638 -134 
L 78 3500 
z
" transform="scale(0.015625)"/>
      <path id="DejaVuSans-Bold-50" d="M 3781 2919 
Q 3994 3244 4286 3414 
Q 4578 3584 4928 3584 
Q 5531 3584 5847 3212 
Q 6163 2841 6163 2131 
L 6163 0 
L 5038 0 
L 5038 1825 
Q 5041 1866 5042 1909 
Q 5044 1953 5044 2034 
Q 5044 2406 4934 2573 
Q 4825 2741 4581 2741 
Q 4263 2741 4089 2478 
Q 3916 2216 3909 1719 
L 3909 0 
L 2784 0 
L 2784 1825 
Q 2784 2406 2684 2573 
Q 2584 2741 2328 2741 
Q 2006 2741 1831 2477 
Q 1656 2213 1656 1722 
L 1656 0 
L 531 0 
L 531 3500 
L 1656 3500 
L 1656 2988 
Q 1863 3284 2130 3434 
Q 2397 3584 2719 3584 
Q 3081 3584 3359 3409 
Q 3638 3234 3781 2919 
z
" transform="scale(0.015625)"/>
      <path id="DejaVuSans-Bold-44" d="M 2106 1575 
Q 1756 1575 1579 1456 
Q 1403 1338 1403 1106 
Q 1403 894 1545 773 
Q 1688 653 1941 653 
Q 2256 653 2472 879 
Q 2688 1106 2688 1447 
L 2688 1575 
L 2106 1575 
z
M 3816 1997 
L 3816 0 
L 2688 0 
L 2688 519 
Q 2463 200 2181 54 
Q 1900 -91 1497 -91 
Q 953 -91 614 226 
Q 275 544 275 1050 
Q 275 1666 698 1953 
Q 1122 2241 2028 2241 
L 2688 2241 
L 2688 2328 
Q 2688 2594 2478 2717 
Q 2269 2841 1825 2841 
Q 1466 2841 1156 2769 
Q 847 2697 581 2553 
L 581 3406 
Q 941 3494 1303 3539 
Q 1666 3584 2028 3584 
Q 2975 3584 3395 3211 
Q 3816 2838 3816 1997 
z
" transform="scale(0.015625)"/>
      <path id="DejaVuSans-Bold-53" d="M 1656 506 
L 1656 -1331 
L 538 -1331 
L 538 3500 
L 1656 3500 
L 1656 2988 
Q 1888 3294 2169 3439 
Q 2450 3584 2816 3584 
Q 3463 3584 3878 3070 
Q 4294 2556 4294 1747 
Q 4294 938 3878 423 
Q 3463 -91 2816 -91 
Q 2450 -91 2169 54 
Q 1888 200 1656 506 
z
M 2400 2772 
Q 2041 2772 1848 2508 
Q 1656 2244 1656 1747 
Q 1656 1250 1848 986 
Q 2041 722 2400 722 
Q 2759 722 2948 984 
Q 3138 1247 3138 1747 
Q 3138 2247 2948 2509 
Q 2759 2772 2400 2772 
z
" transform="scale(0.015625)"/>
      <path id="DejaVuSans-Bold-af6" d="M 344 2156 
L 6056 2156 
L 6056 1350 
L 344 1350 
L 344 2156 
z
" transform="scale(0.015625)"/>
      <path id="DejaVuSans-Bold-5a" d="M 225 3500 
L 1313 3500 
L 1900 1088 
L 2491 3500 
L 3425 3500 
L 4013 1113 
L 4603 3500 
L 5691 3500 
L 4769 0 
L 3547 0 
L 2956 2406 
L 2369 0 
L 1147 0 
L 225 3500 
z
" transform="scale(0.015625)"/>
      <path id="DejaVuSans-Bold-4b" d="M 4056 2131 
L 4056 0 
L 2931 0 
L 2931 347 
L 2931 1625 
Q 2931 2084 2911 2256 
Q 2891 2428 2841 2509 
Q 2775 2619 2662 2680 
Q 2550 2741 2406 2741 
Q 2056 2741 1856 2470 
Q 1656 2200 1656 1722 
L 1656 0 
L 538 0 
L 538 4863 
L 1656 4863 
L 1656 2988 
Q 1909 3294 2193 3439 
Q 2478 3584 2822 3584 
Q 3428 3584 3742 3212 
Q 4056 2841 4056 2131 
z
" transform="scale(0.015625)"/>
      <path id="DejaVuSans-Bold-56" d="M 3272 3391 
L 3272 2541 
Q 2913 2691 2578 2766 
Q 2244 2841 1947 2841 
Q 1628 2841 1473 2761 
Q 1319 2681 1319 2516 
Q 1319 2381 1436 2309 
Q 1553 2238 1856 2203 
L 2053 2175 
Q 2913 2066 3209 1816 
Q 3506 1566 3506 1031 
Q 3506 472 3093 190 
Q 2681 -91 1863 -91 
Q 1516 -91 1145 -36 
Q 775 19 384 128 
L 384 978 
Q 719 816 1070 734 
Q 1422 653 1784 653 
Q 2113 653 2278 743 
Q 2444 834 2444 1013 
Q 2444 1163 2330 1236 
Q 2216 1309 1875 1350 
L 1678 1375 
Q 931 1469 631 1722 
Q 331 1975 331 2491 
Q 331 3047 712 3315 
Q 1094 3584 1881 3584 
Q 2191 3584 2531 3537 
Q 2872 3491 3272 3391 
z
" transform="scale(0.015625)"/>
      <path id="DejaVuSans-Bold-59" d="M 97 3500 
L 1216 3500 
L 2088 1081 
L 2956 3500 
L 4078 3500 
L 2700 0 
L 1472 0 
L 97 3500 
z
" transform="scale(0.015625)"/>
      <path id="DejaVuSans-Bold-4f" d="M 538 4863 
L 1656 4863 
L 1656 0 
L 538 0 
L 538 4863 
z
" transform="scale(0.015625)"/>
      <path id="DejaVuSans-Bold-55" d="M 3138 2547 
Q 2991 2616 2845 2648 
Q 2700 2681 2553 2681 
Q 2122 2681 1889 2404 
Q 1656 2128 1656 1613 
L 1656 0 
L 538 0 
L 538 3500 
L 1656 3500 
L 1656 2925 
Q 1872 3269 2151 3426 
Q 2431 3584 2822 3584 
Q 2878 3584 2943 3579 
Q 3009 3575 3134 3559 
L 3138 2547 
z
" transform="scale(0.015625)"/>
      <path id="DejaVuSans-Bold-22" d="M 2216 1575 
L 1088 1575 
L 1088 1728 
Q 1088 1984 1191 2182 
Q 1294 2381 1625 2688 
L 1825 2869 
Q 2003 3031 2086 3175 
Q 2169 3319 2169 3463 
Q 2169 3681 2019 3804 
Q 1869 3928 1600 3928 
Q 1347 3928 1053 3823 
Q 759 3719 441 3513 
L 441 4494 
Q 819 4625 1131 4687 
Q 1444 4750 1734 4750 
Q 2497 4750 2897 4439 
Q 3297 4128 3297 3531 
Q 3297 3225 3175 2983 
Q 3053 2741 2759 2463 
L 2559 2284 
Q 2347 2091 2281 1973 
Q 2216 1856 2216 1716 
L 2216 1575 
z
M 1088 1113 
L 2216 1113 
L 2216 0 
L 1088 0 
L 1088 1113 
z
" transform="scale(0.015625)"/>
     </defs>
     <use xlink:href="#DejaVuSans-Bold-2f"/>
     <use xlink:href="#DejaVuSans-Bold-4c" transform="translate(63.71875 0)"/>
     <use xlink:href="#DejaVuSans-Bold-54" transform="translate(98 0)"/>
     <use xlink:href="#DejaVuSans-Bold-58" transform="translate(169.578125 0)"/>
     <use xlink:href="#DejaVuSans-Bold-4c" transform="translate(240.765625 0)"/>
     <use xlink:href="#DejaVuSans-Bold-47" transform="translate(275.046875 0)"/>
     <use xlink:href="#DejaVuSans-Bold-4c" transform="translate(346.625 0)"/>
     <use xlink:href="#DejaVuSans-Bold-57" transform="translate(380.90625 0)"/>
     <use xlink:href="#DejaVuSans-Bold-5c" transform="translate(428.703125 0)"/>
     <use xlink:href="#DejaVuSans-Bold-3" transform="translate(493.890625 0)"/>
     <use xlink:href="#DejaVuSans-Bold-50" transform="translate(528.703125 0)"/>
     <use xlink:href="#DejaVuSans-Bold-44" transform="translate(632.90625 0)"/>
     <use xlink:href="#DejaVuSans-Bold-53" transform="translate(700.390625 0)"/>
     <use xlink:href="#DejaVuSans-Bold-3" transform="translate(771.96875 0)"/>
     <use xlink:href="#DejaVuSans-Bold-af6" transform="translate(806.78125 0)"/>
     <use xlink:href="#DejaVuSans-Bold-3" transform="translate(906.78125 0)"/>
     <use xlink:href="#DejaVuSans-Bold-5a" transform="translate(941.59375 0)"/>
     <use xlink:href="#DejaVuSans-Bold-4b" transform="translate(1033.984375 0)"/>
     <use xlink:href="#DejaVuSans-Bold-44" transform="translate(1105.171875 0)"/>
     <use xlink:href="#DejaVuSans-Bold-57" transform="translate(1172.65625 0)"/>
     <use xlink:href="#DejaVuSans-Bold-3" transform="translate(1220.453125 0)"/>
     <use xlink:href="#DejaVuSans-Bold-4c" transform="translate(1255.265625 0)"/>
     <use xlink:href="#DejaVuSans-Bold-56" transform="translate(1289.546875 0)"/>
     <use xlink:href="#DejaVuSans-Bold-3" transform="translate(1349.0625 0)"/>
     <use xlink:href="#DejaVuSans-Bold-44" transform="translate(1383.875 0)"/>
     <use xlink:href="#DejaVuSans-Bold-3" transform="translate(1451.359375 0)"/>
     <use xlink:href="#DejaVuSans-Bold-59" transform="translate(1486.171875 0)"/>
     <use xlink:href="#DejaVuSans-Bold-44" transform="translate(1551.359375 0)"/>
     <use xlink:href="#DejaVuSans-Bold-4f" transform="translate(1618.84375 0)"/>
     <use xlink:href="#DejaVuSans-Bold-4c" transform="translate(1653.125 0)"/>
     <use xlink:href="#DejaVuSans-Bold-47" transform="translate(1687.40625 0)"/>
     <use xlink:href="#DejaVuSans-Bold-3" transform="translate(1758.984375 0)"/>
     <use xlink:href="#DejaVuSans-Bold-47" transform="translate(1793.796875 0)"/>
     <use xlink:href="#DejaVuSans-Bold-55" transform="translate(1865.375 0)"/>
     <use xlink:href="#DejaVuSans-Bold-44" transform="translate(1914.6875 0)"/>
     <use xlink:href="#DejaVuSans-Bold-5a" transform="translate(1982.171875 0)"/>
     <use xlink:href="#DejaVuSans-Bold-22" transform="translate(2074.5625 0)"/>
    </g>
   </g>
   <g id="line2d_10">
    <path d="M 410.536098 326.8032 
L 410.536098 261.3952 
" clip-path="url(#p523370709f)" style="fill: none; stroke: #ef5350; stroke-width: 1.2"/>
   </g>
   <g id="line2d_11">
    <path d="M 452.462927 320.2624 
L 452.462927 235.232 
" clip-path="url(#p523370709f)" style="fill: none; stroke: #26a69a; stroke-width: 1.2"/>
   </g>
   <g id="line2d_12">
    <path d="M 494.389756 323.5328 
L 494.389756 222.1504 
" clip-path="url(#p523370709f)" style="fill: none; stroke: #ef5350; stroke-width: 1.2"/>
   </g>
   <g id="line2d_13">
    <path d="M 536.316585 313.7216 
L 536.316585 215.6096 
" clip-path="url(#p523370709f)" style="fill: none; stroke: #26a69a; stroke-width: 1.2"/>
   </g>
   <g id="line2d_14">
    <path d="M 578.243415 297.3696 
L 578.243415 209.0688 
" clip-path="url(#p523370709f)" style="fill: none; stroke: #ef5350; stroke-width: 1.2"/>
   </g>
   <g id="line2d_15">
    <path d="M 620.170244 294.0992 
L 620.170244 205.7984 
" clip-path="url(#p523370709f)" style="fill: none; stroke: #26a69a; stroke-width: 1.2"/>
   </g>
   <g id="patch_19">
    <path d="M 397.53878 313.7216 
L 423.533415 313.7216 
L 423.533415 294.0992 
L 397.53878 294.0992 
z
" clip-path="url(#p523370709f)" style="fill: #ef5350; stroke: #ef5350; stroke-linejoin: miter"/>
   </g>
   <g id="patch_20">
    <path d="M 439.46561 313.7216 
L 465.460244 313.7216 
L 465.460244 241.7728 
L 439.46561 241.7728 
z
" clip-path="url(#p523370709f)" style="fill: #26a69a; stroke: #26a69a; stroke-linejoin: miter"/>
   </g>
   <g id="patch_21">
    <path d="M 481.392439 307.1808 
L 507.387073 307.1808 
L 507.387073 241.7728 
L 481.392439 241.7728 
z
" clip-path="url(#p523370709f)" style="fill: #ef5350; stroke: #ef5350; stroke-linejoin: miter"/>
   </g>
   <g id="patch_22">
    <path d="M 523.319268 307.1808 
L 549.313902 307.1808 
L 549.313902 222.1504 
L 523.319268 222.1504 
z
" clip-path="url(#p523370709f)" style="fill: #26a69a; stroke: #26a69a; stroke-linejoin: miter"/>
   </g>
   <g id="patch_23">
    <path d="M 565.246098 287.5584 
L 591.240732 287.5584 
L 591.240732 222.1504 
L 565.246098 222.1504 
z
" clip-path="url(#p523370709f)" style="fill: #ef5350; stroke: #ef5350; stroke-linejoin: miter"/>
   </g>
   <g id="patch_24">
    <path d="M 607.172927 287.5584 
L 633.167561 287.5584 
L 633.167561 209.0688 
L 607.172927 209.0688 
z
" clip-path="url(#p523370709f)" style="fill: #26a69a; stroke: #26a69a; stroke-linejoin: miter"/>
   </g>
   <g id="line2d_16">
    <path d="M 389.572683 326.8032 
L 720.794634 326.8032 
" clip-path="url(#p523370709f)" style="fill: none; stroke-dasharray: 8.4,5.6; stroke-dashoffset: 0; stroke: #bc8cff; stroke-width: 1.4"/>
   </g>
   <g id="patch_25">
    <path d="M 678.867805 184.902392 
Q 678.867805 246.678705 678.867805 306.218949 
" clip-path="url(#p523370709f)" style="fill: none; stroke: #bc8cff; stroke-width: 2; stroke-linecap: round"/>
    <path d="M 682.067805 299.818949 
L 678.867805 306.218949 
L 675.667805 299.818949 
z
" clip-path="url(#p523370709f)" style="fill: #bc8cff; stroke: #bc8cff; stroke-width: 2; stroke-linecap: round"/>
   </g>
  </g>
  <g id="axes_3">
   <g id="patch_26">
    <path d="M 763.56 366.048 
L 1107.36 366.048 
L 1107.36 71.712 
L 763.56 71.712 
z
" style="fill: #141a22"/>
   </g>
   <g id="matplotlib.axis_5"/>
   <g id="matplotlib.axis_6"/>
   <g id="line2d_17">
    <path d="M 950.11814 330.006857 
L 1091.369302 161.814857 
" clip-path="url(#pabb6a179d2)" style="fill: none; stroke-dasharray: 7,4.2; stroke-dashoffset: 0; stroke: #f85149; stroke-width: 1.4"/>
   </g>
   <g id="patch_27">
    <path d="M 763.56 366.048 
L 763.56 71.712 
" style="fill: none; stroke: #232a33; stroke-width: 0.8; stroke-linejoin: miter; stroke-linecap: square"/>
   </g>
   <g id="patch_28">
    <path d="M 1107.36 366.048 
L 1107.36 71.712 
" style="fill: none; stroke: #232a33; stroke-width: 0.8; stroke-linejoin: miter; stroke-linecap: square"/>
   </g>
   <g id="patch_29">
    <path d="M 763.56 366.048 
L 1107.36 366.048 
" style="fill: none; stroke: #232a33; stroke-width: 0.8; stroke-linejoin: miter; stroke-linecap: square"/>
   </g>
   <g id="patch_30">
    <path d="M 763.56 71.712 
L 1107.36 71.712 
" style="fill: none; stroke: #232a33; stroke-width: 0.8; stroke-linejoin: miter; stroke-linecap: square"/>
   </g>
   <g id="text_8">
    <!-- ✔ RANGING → TRADE -->
    <g style="fill: #3fb950" transform="translate(784.801183 239.904) scale(0.105 -0.105)">
     <defs>
      <path id="DejaVuSans-Bold-c1c" d="M 5050 2225 
L 5050 1788 
L 3822 559 
L 3369 1013 
L 3988 1631 
L 366 1631 
L 366 2381 
L 3988 2381 
L 3369 3000 
L 3822 3453 
L 5050 2225 
z
" transform="scale(0.015625)"/>
      <path id="DejaVuSans-Bold-27" d="M 1791 3756 
L 1791 909 
L 2222 909 
Q 2959 909 3348 1275 
Q 3738 1641 3738 2338 
Q 3738 3031 3350 3393 
Q 2963 3756 2222 3756 
L 1791 3756 
z
M 588 4666 
L 1856 4666 
Q 2919 4666 3439 4514 
Q 3959 4363 4331 4000 
Q 4659 3684 4818 3271 
Q 4978 2859 4978 2338 
Q 4978 1809 4818 1395 
Q 4659 981 4331 666 
Q 3956 303 3431 151 
Q 2906 0 1856 0 
L 588 0 
L 588 4666 
z
" transform="scale(0.015625)"/>
     </defs>
     <use xlink:href="#DejaVuSans-Bold-fa4"/>
     <use xlink:href="#DejaVuSans-Bold-3" transform="translate(83.796875 0)"/>
     <use xlink:href="#DejaVuSans-Bold-35" transform="translate(118.609375 0)"/>
     <use xlink:href="#DejaVuSans-Bold-24" transform="translate(195.609375 0)"/>
     <use xlink:href="#DejaVuSans-Bold-31" transform="translate(273 0)"/>
     <use xlink:href="#DejaVuSans-Bold-2a" transform="translate(356.6875 0)"/>
     <use xlink:href="#DejaVuSans-Bold-2c" transform="translate(438.765625 0)"/>
     <use xlink:href="#DejaVuSans-Bold-31" transform="translate(475.96875 0)"/>
     <use xlink:href="#DejaVuSans-Bold-2a" transform="translate(559.65625 0)"/>
     <use xlink:href="#DejaVuSans-Bold-3" transform="translate(641.734375 0)"/>
     <use xlink:href="#DejaVuSans-Bold-c1c" transform="translate(676.546875 0)"/>
     <use xlink:href="#DejaVuSans-Bold-3" transform="translate(760.34375 0)"/>
     <use xlink:href="#DejaVuSans-Bold-37" transform="translate(795.15625 0)"/>
     <use xlink:href="#DejaVuSans-Bold-35" transform="translate(863.375 0)"/>
     <use xlink:href="#DejaVuSans-Bold-24" transform="translate(940.375 0)"/>
     <use xlink:href="#DejaVuSans-Bold-27" transform="translate(1017.765625 0)"/>
     <use xlink:href="#DejaVuSans-Bold-28" transform="translate(1100.78125 0)"/>
    </g>
   </g>
   <g id="text_9">
    <!-- ✘ TRENDING → SKIP -->
    <g style="fill: #f85149" transform="translate(968.856707 92.736) scale(0.105 -0.105)">
     <defs>
      <path id="DejaVuSans-Bold-2e" d="M 588 4666 
L 1791 4666 
L 1791 2963 
L 3525 4666 
L 4922 4666 
L 2675 2456 
L 5153 0 
L 3647 0 
L 1791 1838 
L 1791 0 
L 588 0 
L 588 4666 
z
" transform="scale(0.015625)"/>
      <path id="DejaVuSans-Bold-33" d="M 588 4666 
L 2584 4666 
Q 3475 4666 3951 4270 
Q 4428 3875 4428 3144 
Q 4428 2409 3951 2014 
Q 3475 1619 2584 1619 
L 1791 1619 
L 1791 0 
L 588 0 
L 588 4666 
z
M 1791 3794 
L 1791 2491 
L 2456 2491 
Q 2806 2491 2997 2661 
Q 3188 2831 3188 3144 
Q 3188 3456 2997 3625 
Q 2806 3794 2456 3794 
L 1791 3794 
z
" transform="scale(0.015625)"/>
     </defs>
     <use xlink:href="#DejaVuSans-Bold-fa8"/>
     <use xlink:href="#DejaVuSans-Bold-3" transform="translate(83.796875 0)"/>
     <use xlink:href="#DejaVuSans-Bold-37" transform="translate(118.609375 0)"/>
     <use xlink:href="#DejaVuSans-Bold-35" transform="translate(186.828125 0)"/>
     <use xlink:href="#DejaVuSans-Bold-28" transform="translate(263.828125 0)"/>
     <use xlink:href="#DejaVuSans-Bold-31" transform="translate(332.140625 0)"/>
     <use xlink:href="#DejaVuSans-Bold-27" transform="translate(415.828125 0)"/>
     <use xlink:href="#DejaVuSans-Bold-2c" transform="translate(498.84375 0)"/>
     <use xlink:href="#DejaVuSans-Bold-31" transform="translate(536.046875 0)"/>
     <use xlink:href="#DejaVuSans-Bold-2a" transform="translate(619.734375 0)"/>
     <use xlink:href="#DejaVuSans-Bold-3" transform="translate(701.8125 0)"/>
     <use xlink:href="#DejaVuSans-Bold-c1c" transform="translate(736.625 0)"/>
     <use xlink:href="#DejaVuSans-Bold-3" transform="translate(820.421875 0)"/>
     <use xlink:href="#DejaVuSans-Bold-36" transform="translate(855.234375 0)"/>
     <use xlink:href="#DejaVuSans-Bold-2e" transform="translate(927.25 0)"/>
     <use xlink:href="#DejaVuSans-Bold-2c" transform="translate(1004.734375 0)"/>
     <use xlink:href="#DejaVuSans-Bold-33" transform="translate(1041.9375 0)"/>
    </g>
   </g>
   <g id="text_10">
    <!-- spec gates: net-drift ≤ 35% of range · width ≤ 1.5×ATR₁₄(H1) -->
    <g style="fill: #9aa7b4" transform="translate(802.021607 362.759508) scale(0.084 -0.084)">
     <defs>
      <path id="DejaVuSans-10" d="M 313 2009 
L 1997 2009 
L 1997 1497 
L 313 1497 
L 313 2009 
z
" transform="scale(0.015625)"/>
      <path id="DejaVuSans-cee" d="M 4684 3175 
L 1684 2309 
L 4684 1453 
L 4684 897 
L 678 2047 
L 678 2578 
L 4684 3725 
L 4684 3175 
z
M 678 531 
L 4684 531 
L 4684 0 
L 678 0 
L 678 531 
z
" transform="scale(0.015625)"/>
      <path id="DejaVuSans-16" d="M 2597 2516 
Q 3050 2419 3304 2112 
Q 3559 1806 3559 1356 
Q 3559 666 3084 287 
Q 2609 -91 1734 -91 
Q 1441 -91 1130 -33 
Q 819 25 488 141 
L 488 750 
Q 750 597 1062 519 
Q 1375 441 1716 441 
Q 2309 441 2620 675 
Q 2931 909 2931 1356 
Q 2931 1769 2642 2001 
Q 2353 2234 1838 2234 
L 1294 2234 
L 1294 2753 
L 1863 2753 
Q 2328 2753 2575 2939 
Q 2822 3125 2822 3475 
Q 2822 3834 2567 4026 
Q 2313 4219 1838 4219 
Q 1578 4219 1281 4162 
Q 984 4106 628 3988 
L 628 4550 
Q 988 4650 1302 4700 
Q 1616 4750 1894 4750 
Q 2613 4750 3031 4423 
Q 3450 4097 3450 3541 
Q 3450 3153 3228 2886 
Q 3006 2619 2597 2516 
z
" transform="scale(0.015625)"/>
      <path id="DejaVuSans-18" d="M 691 4666 
L 3169 4666 
L 3169 4134 
L 1269 4134 
L 1269 2991 
Q 1406 3038 1543 3061 
Q 1681 3084 1819 3084 
Q 2600 3084 3056 2656 
Q 3513 2228 3513 1497 
Q 3513 744 3044 326 
Q 2575 -91 1722 -91 
Q 1428 -91 1123 -41 
Q 819 9 494 109 
L 494 744 
Q 775 591 1075 516 
Q 1375 441 1709 441 
Q 2250 441 2565 725 
Q 2881 1009 2881 1497 
Q 2881 1984 2565 2268 
Q 2250 2553 1709 2553 
Q 1456 2553 1204 2497 
Q 953 2441 691 2322 
L 691 4666 
z
" transform="scale(0.015625)"/>
      <path id="DejaVuSans-8" d="M 4653 2053 
Q 4381 2053 4226 1822 
Q 4072 1591 4072 1178 
Q 4072 772 4226 539 
Q 4381 306 4653 306 
Q 4919 306 5073 539 
Q 5228 772 5228 1178 
Q 5228 1588 5073 1820 
Q 4919 2053 4653 2053 
z
M 4653 2450 
Q 5147 2450 5437 2106 
Q 5728 1763 5728 1178 
Q 5728 594 5436 251 
Q 5144 -91 4653 -91 
Q 4153 -91 3862 251 
Q 3572 594 3572 1178 
Q 3572 1766 3864 2108 
Q 4156 2450 4653 2450 
z
M 1428 4353 
Q 1159 4353 1004 4120 
Q 850 3888 850 3481 
Q 850 3069 1003 2837 
Q 1156 2606 1428 2606 
Q 1700 2606 1854 2837 
Q 2009 3069 2009 3481 
Q 2009 3884 1853 4118 
Q 1697 4353 1428 4353 
z
M 4250 4750 
L 4750 4750 
L 1831 -91 
L 1331 -91 
L 4250 4750 
z
M 1428 4750 
Q 1922 4750 2215 4408 
Q 2509 4066 2509 3481 
Q 2509 2891 2217 2550 
Q 1925 2209 1428 2209 
Q 931 2209 642 2551 
Q 353 2894 353 3481 
Q 353 4063 643 4406 
Q 934 4750 1428 4750 
z
" transform="scale(0.015625)"/>
      <path id="DejaVuSans-79" d="M 684 2619 
L 1344 2619 
L 1344 1825 
L 684 1825 
L 684 2619 
z
" transform="scale(0.015625)"/>
      <path id="DejaVuSans-14" d="M 794 531 
L 1825 531 
L 1825 4091 
L 703 3866 
L 703 4441 
L 1819 4666 
L 2450 4666 
L 2450 531 
L 3481 531 
L 3481 0 
L 794 0 
L 794 531 
z
" transform="scale(0.015625)"/>
      <path id="DejaVuSans-11" d="M 684 794 
L 1344 794 
L 1344 0 
L 684 0 
L 684 794 
z
" transform="scale(0.015625)"/>
      <path id="DejaVuSans-99" d="M 4488 3438 
L 3059 2003 
L 4488 575 
L 4116 197 
L 2681 1631 
L 1247 197 
L 878 575 
L 2303 2003 
L 878 3438 
L 1247 3816 
L 2681 2381 
L 4116 3816 
L 4488 3438 
z
" transform="scale(0.015625)"/>
      <path id="DejaVuSans-b5c" d="M 488 343 
L 1125 343 
L 1125 2253 
L 428 2125 
L 428 2487 
L 1147 2609 
L 1575 2609 
L 1575 343 
L 2216 343 
L 2216 0 
L 488 0 
L 488 343 
z
" transform="scale(0.015625)"/>
      <path id="DejaVuSans-b5f" d="M 1491 2231 
L 525 921 
L 1491 921 
L 1491 2231 
z
M 1422 2609 
L 1941 2609 
L 1941 921 
L 2363 921 
L 2363 581 
L 1941 581 
L 1941 0 
L 1491 0 
L 1491 581 
L 197 581 
L 197 959 
L 1422 2609 
z
" transform="scale(0.015625)"/>
      <path id="DejaVuSans-2b" d="M 628 4666 
L 1259 4666 
L 1259 2753 
L 3553 2753 
L 3553 4666 
L 4184 4666 
L 4184 0 
L 3553 0 
L 3553 2222 
L 1259 2222 
L 1259 0 
L 628 0 
L 628 4666 
z
" transform="scale(0.015625)"/>
     </defs>
     <use xlink:href="#DejaVuSans-56"/>
     <use xlink:href="#DejaVuSans-53" transform="translate(52.09375 0)"/>
     <use xlink:href="#DejaVuSans-48" transform="translate(115.578125 0)"/>
     <use xlink:href="#DejaVuSans-46" transform="translate(177.109375 0)"/>
     <use xlink:href="#DejaVuSans-3" transform="translate(232.09375 0)"/>
     <use xlink:href="#DejaVuSans-4a" transform="translate(263.875 0)"/>
     <use xlink:href="#DejaVuSans-44" transform="translate(327.359375 0)"/>
     <use xlink:href="#DejaVuSans-57" transform="translate(388.640625 0)"/>
     <use xlink:href="#DejaVuSans-48" transform="translate(427.84375 0)"/>
     <use xlink:href="#DejaVuSans-56" transform="translate(489.375 0)"/>
     <use xlink:href="#DejaVuSans-1d" transform="translate(541.46875 0)"/>
     <use xlink:href="#DejaVuSans-3" transform="translate(575.15625 0)"/>
     <use xlink:href="#DejaVuSans-51" transform="translate(606.9375 0)"/>
     <use xlink:href="#DejaVuSans-48" transform="translate(670.3125 0)"/>
     <use xlink:href="#DejaVuSans-57" transform="translate(731.84375 0)"/>
     <use xlink:href="#DejaVuSans-10" transform="translate(771.046875 0)"/>
     <use xlink:href="#DejaVuSans-47" transform="translate(807.125 0)"/>
     <use xlink:href="#DejaVuSans-55" transform="translate(870.609375 0)"/>
     <use xlink:href="#DejaVuSans-4c" transform="translate(911.71875 0)"/>
     <use xlink:href="#DejaVuSans-49" transform="translate(939.5 0)"/>
     <use xlink:href="#DejaVuSans-57" transform="translate(972.953125 0)"/>
     <use xlink:href="#DejaVuSans-3" transform="translate(1012.15625 0)"/>
     <use xlink:href="#DejaVuSans-cee" transform="translate(1043.9375 0)"/>
     <use xlink:href="#DejaVuSans-3" transform="translate(1127.734375 0)"/>
     <use xlink:href="#DejaVuSans-16" transform="translate(1159.515625 0)"/>
     <use xlink:href="#DejaVuSans-18" transform="translate(1223.140625 0)"/>
     <use xlink:href="#DejaVuSans-8" transform="translate(1286.765625 0)"/>
     <use xlink:href="#DejaVuSans-3" transform="translate(1381.78125 0)"/>
     <use xlink:href="#DejaVuSans-52" transform="translate(1413.5625 0)"/>
     <use xlink:href="#DejaVuSans-49" transform="translate(1474.75 0)"/>
     <use xlink:href="#DejaVuSans-3" transform="translate(1509.953125 0)"/>
     <use xlink:href="#DejaVuSans-55" transform="translate(1541.734375 0)"/>
     <use xlink:href="#DejaVuSans-44" transform="translate(1582.84375 0)"/>
     <use xlink:href="#DejaVuSans-51" transform="translate(1644.125 0)"/>
     <use xlink:href="#DejaVuSans-4a" transform="translate(1707.5 0)"/>
     <use xlink:href="#DejaVuSans-48" transform="translate(1770.984375 0)"/>
     <use xlink:href="#DejaVuSans-3" transform="translate(1832.515625 0)"/>
     <use xlink:href="#DejaVuSans-79" transform="translate(1864.296875 0)"/>
     <use xlink:href="#DejaVuSans-3" transform="translate(1896.078125 0)"/>
     <use xlink:href="#DejaVuSans-5a" transform="translate(1927.859375 0)"/>
     <use xlink:href="#DejaVuSans-4c" transform="translate(2009.640625 0)"/>
     <use xlink:href="#DejaVuSans-47" transform="translate(2037.421875 0)"/>
     <use xlink:href="#DejaVuSans-57" transform="translate(2100.90625 0)"/>
     <use xlink:href="#DejaVuSans-4b" transform="translate(2140.109375 0)"/>
     <use xlink:href="#DejaVuSans-3" transform="translate(2203.484375 0)"/>
     <use xlink:href="#DejaVuSans-cee" transform="translate(2235.265625 0)"/>
     <use xlink:href="#DejaVuSans-3" transform="translate(2319.0625 0)"/>
     <use xlink:href="#DejaVuSans-14" transform="translate(2350.84375 0)"/>
     <use xlink:href="#DejaVuSans-11" transform="translate(2414.46875 0)"/>
     <use xlink:href="#DejaVuSans-18" transform="translate(2446.25 0)"/>
     <use xlink:href="#DejaVuSans-99" transform="translate(2509.875 0)"/>
     <use xlink:href="#DejaVuSans-24" transform="translate(2593.671875 0)"/>
     <use xlink:href="#DejaVuSans-37" transform="translate(2654.3125 0)"/>
     <use xlink:href="#DejaVuSans-35" transform="translate(2715.390625 0)"/>
     <use xlink:href="#DejaVuSans-b5c" transform="translate(2784.875 0)"/>
     <use xlink:href="#DejaVuSans-b5f" transform="translate(2824.96875 0)"/>
     <use xlink:href="#DejaVuSans-b" transform="translate(2865.0625 0)"/>
     <use xlink:href="#DejaVuSans-2b" transform="translate(2904.078125 0)"/>
     <use xlink:href="#DejaVuSans-14" transform="translate(2979.28125 0)"/>
     <use xlink:href="#DejaVuSans-c" transform="translate(3042.90625 0)"/>
    </g>
    <!-- · both range thirds touched (spec §asian_range) -->
    <g style="fill: #9aa7b4" transform="translate(830.676763 372.841805) scale(0.084 -0.084)">
     <defs>
      <path id="DejaVuSans-69" d="M 1184 2925 
Q 988 2781 891 2640 
Q 794 2500 794 2356 
Q 794 2119 1011 1911 
Q 1228 1703 2009 1281 
Q 2206 1422 2303 1564 
Q 2400 1706 2400 1850 
Q 2400 2084 2176 2296 
Q 1953 2509 1184 2925 
z
M 2591 4569 
L 2591 4056 
Q 2331 4178 2107 4239 
Q 1884 4300 1709 4300 
Q 1406 4300 1237 4175 
Q 1069 4050 1069 3828 
Q 1069 3547 1713 3188 
Q 1794 3141 1838 3116 
Q 2497 2744 2701 2503 
Q 2906 2263 2906 1947 
Q 2906 1666 2762 1447 
Q 2619 1228 2328 1063 
Q 2522 900 2611 729 
Q 2700 559 2700 359 
Q 2700 -84 2381 -346 
Q 2063 -609 1522 -609 
Q 1294 -609 1053 -564 
Q 813 -519 538 -428 
L 538 84 
Q 809 -38 1040 -98 
Q 1272 -159 1453 -159 
Q 1772 -159 1948 -28 
Q 2125 103 2125 341 
Q 2125 659 1434 1044 
L 1356 1088 
Q 688 1463 488 1702 
Q 288 1941 288 2259 
Q 288 2544 433 2767 
Q 578 2991 863 3144 
Q 678 3281 586 3456 
Q 494 3631 494 3847 
Q 494 4253 806 4501 
Q 1119 4750 1638 4750 
Q 1866 4750 2105 4704 
Q 2344 4659 2591 4569 
z
" transform="scale(0.015625)"/>
      <path id="DejaVuSans-42" d="M 3263 -1063 
L 3263 -1509 
L -63 -1509 
L -63 -1063 
L 3263 -1063 
z
" transform="scale(0.015625)"/>
     </defs>
     <use xlink:href="#DejaVuSans-79"/>
     <use xlink:href="#DejaVuSans-3" transform="translate(31.78125 0)"/>
     <use xlink:href="#DejaVuSans-45" transform="translate(63.5625 0)"/>
     <use xlink:href="#DejaVuSans-52" transform="translate(127.046875 0)"/>
     <use xlink:href="#DejaVuSans-57" transform="translate(188.234375 0)"/>
     <use xlink:href="#DejaVuSans-4b" transform="translate(227.4375 0)"/>
     <use xlink:href="#DejaVuSans-3" transform="translate(290.8125 0)"/>
     <use xlink:href="#DejaVuSans-55" transform="translate(322.59375 0)"/>
     <use xlink:href="#DejaVuSans-44" transform="translate(363.703125 0)"/>
     <use xlink:href="#DejaVuSans-51" transform="translate(424.984375 0)"/>
     <use xlink:href="#DejaVuSans-4a" transform="translate(488.359375 0)"/>
     <use xlink:href="#DejaVuSans-48" transform="translate(551.84375 0)"/>
     <use xlink:href="#DejaVuSans-3" transform="translate(613.375 0)"/>
     <use xlink:href="#DejaVuSans-57" transform="translate(645.15625 0)"/>
     <use xlink:href="#DejaVuSans-4b" transform="translate(684.359375 0)"/>
     <use xlink:href="#DejaVuSans-4c" transform="translate(747.734375 0)"/>
     <use xlink:href="#DejaVuSans-55" transform="translate(775.515625 0)"/>
     <use xlink:href="#DejaVuSans-47" transform="translate(814.875 0)"/>
     <use xlink:href="#DejaVuSans-56" transform="translate(878.359375 0)"/>
     <use xlink:href="#DejaVuSans-3" transform="translate(930.453125 0)"/>
     <use xlink:href="#DejaVuSans-57" transform="translate(962.234375 0)"/>
     <use xlink:href="#DejaVuSans-52" transform="translate(1001.4375 0)"/>
     <use xlink:href="#DejaVuSans-58" transform="translate(1062.625 0)"/>
     <use xlink:href="#DejaVuSans-46" transform="translate(1126 0)"/>
     <use xlink:href="#DejaVuSans-4b" transform="translate(1180.984375 0)"/>
     <use xlink:href="#DejaVuSans-48" transform="translate(1244.359375 0)"/>
     <use xlink:href="#DejaVuSans-47" transform="translate(1305.890625 0)"/>
     <use xlink:href="#DejaVuSans-3" transform="translate(1369.375 0)"/>
     <use xlink:href="#DejaVuSans-b" transform="translate(1401.15625 0)"/>
     <use xlink:href="#DejaVuSans-56" transform="translate(1440.171875 0)"/>
     <use xlink:href="#DejaVuSans-53" transform="translate(1492.265625 0)"/>
     <use xlink:href="#DejaVuSans-48" transform="translate(1555.75 0)"/>
     <use xlink:href="#DejaVuSans-46" transform="translate(1617.28125 0)"/>
     <use xlink:href="#DejaVuSans-3" transform="translate(1672.265625 0)"/>
     <use xlink:href="#DejaVuSans-69" transform="translate(1704.046875 0)"/>
     <use xlink:href="#DejaVuSans-44" transform="translate(1754.046875 0)"/>
     <use xlink:href="#DejaVuSans-56" transform="translate(1815.328125 0)"/>
     <use xlink:href="#DejaVuSans-4c" transform="translate(1867.421875 0)"/>
     <use xlink:href="#DejaVuSans-44" transform="translate(1895.203125 0)"/>
     <use xlink:href="#DejaVuSans-51" transform="translate(1956.484375 0)"/>
     <use xlink:href="#DejaVuSans-42" transform="translate(2019.859375 0)"/>
     <use xlink:href="#DejaVuSans-55" transform="translate(2069.859375 0)"/>
     <use xlink:href="#DejaVuSans-44" transform="translate(2110.96875 0)"/>
     <use xlink:href="#DejaVuSans-51" transform="translate(2172.25 0)"/>
     <use xlink:href="#DejaVuSans-4a" transform="translate(2235.625 0)"/>
     <use xlink:href="#DejaVuSans-48" transform="translate(2299.109375 0)"/>
     <use xlink:href="#DejaVuSans-c" transform="translate(2360.640625 0)"/>
    </g>
   </g>
   <g id="line2d_18">
    <path d="M 779.550698 324 
L 779.550698 290.962286 
" clip-path="url(#pabb6a179d2)" style="fill: none; stroke: #26a69a; stroke-width: 1.2"/>
   </g>
   <g id="line2d_19">
    <path d="M 806.20186 317.993143 
L 806.20186 281.952 
" clip-path="url(#pabb6a179d2)" style="fill: none; stroke: #ef5350; stroke-width: 1.2"/>
   </g>
   <g id="line2d_20">
    <path d="M 832.853023 314.989714 
L 832.853023 284.955429 
" clip-path="url(#pabb6a179d2)" style="fill: none; stroke: #26a69a; stroke-width: 1.2"/>
   </g>
   <g id="line2d_21">
    <path d="M 859.504186 311.986286 
L 859.504186 278.948571 
" clip-path="url(#pabb6a179d2)" style="fill: none; stroke: #ef5350; stroke-width: 1.2"/>
   </g>
   <g id="line2d_22">
    <path d="M 886.155349 320.996571 
L 886.155349 287.958857 
" clip-path="url(#pabb6a179d2)" style="fill: none; stroke: #ef5350; stroke-width: 1.2"/>
   </g>
   <g id="line2d_23">
    <path d="M 912.806512 314.989714 
L 912.806512 284.955429 
" clip-path="url(#pabb6a179d2)" style="fill: none; stroke: #26a69a; stroke-width: 1.2"/>
   </g>
   <g id="line2d_24">
    <path d="M 779.550698 212.873143 
L 779.550698 199.357714 
" clip-path="url(#pabb6a179d2)" style="fill: none; stroke: #26a69a; stroke-width: 1.2"/>
   </g>
   <g id="line2d_25">
    <path d="M 806.20186 196.354286 
L 806.20186 182.838857 
" clip-path="url(#pabb6a179d2)" style="fill: none; stroke: #26a69a; stroke-width: 1.2"/>
   </g>
   <g id="line2d_26">
    <path d="M 832.853023 179.835429 
L 832.853023 166.32 
" clip-path="url(#pabb6a179d2)" style="fill: none; stroke: #26a69a; stroke-width: 1.2"/>
   </g>
   <g id="line2d_27">
    <path d="M 859.504186 163.316571 
L 859.504186 149.801143 
" clip-path="url(#pabb6a179d2)" style="fill: none; stroke: #26a69a; stroke-width: 1.2"/>
   </g>
   <g id="line2d_28">
    <path d="M 886.155349 146.797714 
L 886.155349 133.282286 
" clip-path="url(#pabb6a179d2)" style="fill: none; stroke: #26a69a; stroke-width: 1.2"/>
   </g>
   <g id="line2d_29">
    <path d="M 912.806512 130.278857 
L 912.806512 116.763429 
" clip-path="url(#pabb6a179d2)" style="fill: none; stroke: #26a69a; stroke-width: 1.2"/>
   </g>
   <g id="line2d_30">
    <path d="M 939.457674 113.76 
L 939.457674 100.244571 
" clip-path="url(#pabb6a179d2)" style="fill: none; stroke: #26a69a; stroke-width: 1.2"/>
   </g>
   <g id="patch_31">
    <path d="M 771.288837 314.989714 
L 787.812558 314.989714 
L 787.812558 296.969143 
L 771.288837 296.969143 
z
" clip-path="url(#pabb6a179d2)" style="fill: #26a69a; stroke: #26a69a; stroke-linejoin: miter"/>
   </g>
   <g id="patch_32">
    <path d="M 797.94 308.982857 
L 814.463721 308.982857 
L 814.463721 296.969143 
L 797.94 296.969143 
z
" clip-path="url(#pabb6a179d2)" style="fill: #ef5350; stroke: #ef5350; stroke-linejoin: miter"/>
   </g>
   <g id="patch_33">
    <path d="M 824.591163 308.982857 
L 841.114884 308.982857 
L 841.114884 290.962286 
L 824.591163 290.962286 
z
" clip-path="url(#pabb6a179d2)" style="fill: #26a69a; stroke: #26a69a; stroke-linejoin: miter"/>
   </g>
   <g id="patch_34">
    <path d="M 851.242326 302.976 
L 867.766047 302.976 
L 867.766047 290.962286 
L 851.242326 290.962286 
z
" clip-path="url(#pabb6a179d2)" style="fill: #ef5350; stroke: #ef5350; stroke-linejoin: miter"/>
   </g>
   <g id="patch_35">
    <path d="M 877.893488 311.986286 
L 894.417209 311.986286 
L 894.417209 302.976 
L 877.893488 302.976 
z
" clip-path="url(#pabb6a179d2)" style="fill: #ef5350; stroke: #ef5350; stroke-linejoin: miter"/>
   </g>
   <g id="patch_36">
    <path d="M 904.544651 311.986286 
L 921.068372 311.986286 
L 921.068372 293.965714 
L 904.544651 293.965714 
z
" clip-path="url(#pabb6a179d2)" style="fill: #26a69a; stroke: #26a69a; stroke-linejoin: miter"/>
   </g>
   <g id="line2d_31">
    <path d="M 766.225116 281.351314 
L 928.797209 281.351314 
" clip-path="url(#pabb6a179d2)" style="fill: none; stroke-dasharray: 8.4,5.6; stroke-dashoffset: 0; stroke: #3fb950; stroke-width: 1.4"/>
   </g>
   <g id="line2d_32">
    <path d="M 766.225116 323.399314 
L 928.797209 323.399314 
" clip-path="url(#pabb6a179d2)" style="fill: none; stroke-dasharray: 8.4,5.6; stroke-dashoffset: 0; stroke: #3fb950; stroke-width: 1.4"/>
   </g>
   <g id="patch_37">
    <path d="M 772.887907 206.866286 
L 786.213488 206.866286 
L 786.213488 200.859429 
L 772.887907 200.859429 
z
" clip-path="url(#pabb6a179d2)" style="fill: #26a69a; stroke: #26a69a; stroke-linejoin: miter"/>
   </g>
   <g id="patch_38">
    <path d="M 799.53907 190.347429 
L 812.864651 190.347429 
L 812.864651 184.340571 
L 799.53907 184.340571 
z
" clip-path="url(#pabb6a179d2)" style="fill: #26a69a; stroke: #26a69a; stroke-linejoin: miter"/>
   </g>
   <g id="patch_39">
    <path d="M 826.190233 173.828571 
L 839.515814 173.828571 
L 839.515814 167.821714 
L 826.190233 167.821714 
z
" clip-path="url(#pabb6a179d2)" style="fill: #26a69a; stroke: #26a69a; stroke-linejoin: miter"/>
   </g>
   <g id="patch_40">
    <path d="M 852.841395 157.309714 
L 866.166977 157.309714 
L 866.166977 151.302857 
L 852.841395 151.302857 
z
" clip-path="url(#pabb6a179d2)" style="fill: #26a69a; stroke: #26a69a; stroke-linejoin: miter"/>
   </g>
   <g id="patch_41">
    <path d="M 879.492558 140.790857 
L 892.81814 140.790857 
L 892.81814 134.784 
L 879.492558 134.784 
z
" clip-path="url(#pabb6a179d2)" style="fill: #26a69a; stroke: #26a69a; stroke-linejoin: miter"/>
   </g>
   <g id="patch_42">
    <path d="M 906.143721 124.272 
L 919.469302 124.272 
L 919.469302 118.265143 
L 906.143721 118.265143 
z
" clip-path="url(#pabb6a179d2)" style="fill: #26a69a; stroke: #26a69a; stroke-linejoin: miter"/>
   </g>
   <g id="patch_43">
    <path d="M 932.794884 107.753143 
L 946.120465 107.753143 
L 946.120465 101.746286 
L 932.794884 101.746286 
z
" clip-path="url(#pabb6a179d2)" style="fill: #26a69a; stroke: #26a69a; stroke-linejoin: miter"/>
   </g>
   <g id="text_11">
    <!-- range hi -->
    <g style="fill: #3fb950" transform="translate(939.457674 283.429752) scale(0.08 -0.08)">
     <use xlink:href="#DejaVuSans-55"/>
     <use xlink:href="#DejaVuSans-44" transform="translate(41.109375 0)"/>
     <use xlink:href="#DejaVuSans-51" transform="translate(102.390625 0)"/>
     <use xlink:href="#DejaVuSans-4a" transform="translate(165.765625 0)"/>
     <use xlink:href="#DejaVuSans-48" transform="translate(229.25 0)"/>
     <use xlink:href="#DejaVuSans-3" transform="translate(290.78125 0)"/>
     <use xlink:href="#DejaVuSans-4b" transform="translate(322.5625 0)"/>
     <use xlink:href="#DejaVuSans-4c" transform="translate(385.9375 0)"/>
    </g>
   </g>
   <g id="text_12">
    <!-- range lo -->
    <g style="fill: #3fb950" transform="translate(939.457674 325.477752) scale(0.08 -0.08)">
     <use xlink:href="#DejaVuSans-55"/>
     <use xlink:href="#DejaVuSans-44" transform="translate(41.109375 0)"/>
     <use xlink:href="#DejaVuSans-51" transform="translate(102.390625 0)"/>
     <use xlink:href="#DejaVuSans-4a" transform="translate(165.765625 0)"/>
     <use xlink:href="#DejaVuSans-48" transform="translate(229.25 0)"/>
     <use xlink:href="#DejaVuSans-3" transform="translate(290.78125 0)"/>
     <use xlink:href="#DejaVuSans-4f" transform="translate(322.5625 0)"/>
     <use xlink:href="#DejaVuSans-52" transform="translate(350.34375 0)"/>
    </g>
   </g>
  </g>
  <g id="text_13">
   <!-- LKZ-1 · Liquidity quality + the ranging-Asia hard filter -->
   <g style="fill: #f0f6fc" transform="translate(335.453906 17.837812) scale(0.14 -0.14)">
    <defs>
     <path id="DejaVuSans-Bold-3d" d="M 359 4666 
L 4281 4666 
L 4281 3938 
L 1778 909 
L 4353 909 
L 4353 0 
L 288 0 
L 288 728 
L 2791 3756 
L 359 3756 
L 359 4666 
z
" transform="scale(0.015625)"/>
     <path id="DejaVuSans-Bold-14" d="M 750 831 
L 1813 831 
L 1813 3847 
L 722 3622 
L 722 4441 
L 1806 4666 
L 2950 4666 
L 2950 831 
L 4013 831 
L 4013 0 
L 750 0 
L 750 831 
z
" transform="scale(0.015625)"/>
     <path id="DejaVuSans-Bold-79" d="M 653 2828 
L 1778 2828 
L 1778 1619 
L 653 1619 
L 653 2828 
z
" transform="scale(0.015625)"/>
     <path id="DejaVuSans-Bold-e" d="M 3053 4013 
L 3053 2375 
L 4684 2375 
L 4684 1638 
L 3053 1638 
L 3053 0 
L 2309 0 
L 2309 1638 
L 678 1638 
L 678 2375 
L 2309 2375 
L 2309 4013 
L 3053 4013 
z
" transform="scale(0.015625)"/>
     <path id="DejaVuSans-Bold-48" d="M 4031 1759 
L 4031 1441 
L 1416 1441 
Q 1456 1047 1700 850 
Q 1944 653 2381 653 
Q 2734 653 3104 758 
Q 3475 863 3866 1075 
L 3866 213 
Q 3469 63 3072 -14 
Q 2675 -91 2278 -91 
Q 1328 -91 801 392 
Q 275 875 275 1747 
Q 275 2603 792 3093 
Q 1309 3584 2216 3584 
Q 3041 3584 3536 3087 
Q 4031 2591 4031 1759 
z
M 2881 2131 
Q 2881 2450 2695 2645 
Q 2509 2841 2209 2841 
Q 1884 2841 1681 2658 
Q 1478 2475 1428 2131 
L 2881 2131 
z
" transform="scale(0.015625)"/>
     <path id="DejaVuSans-Bold-51" d="M 4056 2131 
L 4056 0 
L 2931 0 
L 2931 347 
L 2931 1631 
Q 2931 2084 2911 2256 
Q 2891 2428 2841 2509 
Q 2775 2619 2662 2680 
Q 2550 2741 2406 2741 
Q 2056 2741 1856 2470 
Q 1656 2200 1656 1722 
L 1656 0 
L 538 0 
L 538 3500 
L 1656 3500 
L 1656 2988 
Q 1909 3294 2193 3439 
Q 2478 3584 2822 3584 
Q 3428 3584 3742 3212 
Q 4056 2841 4056 2131 
z
" transform="scale(0.015625)"/>
     <path id="DejaVuSans-Bold-4a" d="M 2919 594 
Q 2688 288 2409 144 
Q 2131 0 1766 0 
Q 1125 0 706 504 
Q 288 1009 288 1791 
Q 288 2575 706 3076 
Q 1125 3578 1766 3578 
Q 2131 3578 2409 3434 
Q 2688 3291 2919 2981 
L 2919 3500 
L 4044 3500 
L 4044 353 
Q 4044 -491 3511 -936 
Q 2978 -1381 1966 -1381 
Q 1638 -1381 1331 -1331 
Q 1025 -1281 716 -1178 
L 716 -306 
Q 1009 -475 1290 -558 
Q 1572 -641 1856 -641 
Q 2406 -641 2662 -400 
Q 2919 -159 2919 353 
L 2919 594 
z
M 2181 2772 
Q 1834 2772 1640 2515 
Q 1447 2259 1447 1791 
Q 1447 1309 1634 1061 
Q 1822 813 2181 813 
Q 2531 813 2725 1069 
Q 2919 1325 2919 1791 
Q 2919 2259 2725 2515 
Q 2531 2772 2181 2772 
z
" transform="scale(0.015625)"/>
     <path id="DejaVuSans-Bold-13ab" d="M 3078 4863 
L 4206 4863 
L 4206 3950 
L 3078 3950 
L 3078 4863 
z
M 2847 4863 
L 2847 4128 
L 2228 4128 
Q 1994 4128 1903 4042 
Q 1813 3956 1813 3744 
L 1813 3500 
L 4206 3500 
L 4206 0 
L 3078 0 
L 3078 2700 
L 1813 2700 
L 1813 0 
L 684 0 
L 684 2700 
L 134 2700 
L 134 3500 
L 684 3500 
L 684 3744 
Q 684 4316 1003 4589 
Q 1322 4863 1991 4863 
L 2847 4863 
z
" transform="scale(0.015625)"/>
    </defs>
    <use xlink:href="#DejaVuSans-Bold-2f"/>
    <use xlink:href="#DejaVuSans-Bold-2e" transform="translate(63.71875 0)"/>
    <use xlink:href="#DejaVuSans-Bold-3d" transform="translate(141.203125 0)"/>
    <use xlink:href="#DejaVuSans-Bold-10" transform="translate(211.96875 0)"/>
    <use xlink:href="#DejaVuSans-Bold-14" transform="translate(253.46875 0)"/>
    <use xlink:href="#DejaVuSans-Bold-3" transform="translate(323.046875 0)"/>
    <use xlink:href="#DejaVuSans-Bold-79" transform="translate(357.859375 0)"/>
    <use xlink:href="#DejaVuSans-Bold-3" transform="translate(395.84375 0)"/>
    <use xlink:href="#DejaVuSans-Bold-2f" transform="translate(430.65625 0)"/>
    <use xlink:href="#DejaVuSans-Bold-4c" transform="translate(494.375 0)"/>
    <use xlink:href="#DejaVuSans-Bold-54" transform="translate(528.65625 0)"/>
    <use xlink:href="#DejaVuSans-Bold-58" transform="translate(600.234375 0)"/>
    <use xlink:href="#DejaVuSans-Bold-4c" transform="translate(671.421875 0)"/>
    <use xlink:href="#DejaVuSans-Bold-47" transform="translate(705.703125 0)"/>
    <use xlink:href="#DejaVuSans-Bold-4c" transform="translate(777.28125 0)"/>
    <use xlink:href="#DejaVuSans-Bold-57" transform="translate(811.5625 0)"/>
    <use xlink:href="#DejaVuSans-Bold-5c" transform="translate(859.359375 0)"/>
    <use xlink:href="#DejaVuSans-Bold-3" transform="translate(924.546875 0)"/>
    <use xlink:href="#DejaVuSans-Bold-54" transform="translate(959.359375 0)"/>
    <use xlink:href="#DejaVuSans-Bold-58" transform="translate(1030.9375 0)"/>
    <use xlink:href="#DejaVuSans-Bold-44" transform="translate(1102.125 0)"/>
    <use xlink:href="#DejaVuSans-Bold-4f" transform="translate(1169.609375 0)"/>
    <use xlink:href="#DejaVuSans-Bold-4c" transform="translate(1203.890625 0)"/>
    <use xlink:href="#DejaVuSans-Bold-57" transform="translate(1238.171875 0)"/>
    <use xlink:href="#DejaVuSans-Bold-5c" transform="translate(1285.96875 0)"/>
    <use xlink:href="#DejaVuSans-Bold-3" transform="translate(1351.15625 0)"/>
    <use xlink:href="#DejaVuSans-Bold-e" transform="translate(1385.96875 0)"/>
    <use xlink:href="#DejaVuSans-Bold-3" transform="translate(1469.765625 0)"/>
    <use xlink:href="#DejaVuSans-Bold-57" transform="translate(1504.578125 0)"/>
    <use xlink:href="#DejaVuSans-Bold-4b" transform="translate(1552.375 0)"/>
    <use xlink:href="#DejaVuSans-Bold-48" transform="translate(1623.5625 0)"/>
    <use xlink:href="#DejaVuSans-Bold-3" transform="translate(1691.390625 0)"/>
    <use xlink:href="#DejaVuSans-Bold-55" transform="translate(1726.203125 0)"/>
    <use xlink:href="#DejaVuSans-Bold-44" transform="translate(1775.515625 0)"/>
    <use xlink:href="#DejaVuSans-Bold-51" transform="translate(1843 0)"/>
    <use xlink:href="#DejaVuSans-Bold-4a" transform="translate(1914.1875 0)"/>
    <use xlink:href="#DejaVuSans-Bold-4c" transform="translate(1985.765625 0)"/>
    <use xlink:href="#DejaVuSans-Bold-51" transform="translate(2020.046875 0)"/>
    <use xlink:href="#DejaVuSans-Bold-4a" transform="translate(2091.234375 0)"/>
    <use xlink:href="#DejaVuSans-Bold-10" transform="translate(2162.8125 0)"/>
    <use xlink:href="#DejaVuSans-Bold-24" transform="translate(2204.3125 0)"/>
    <use xlink:href="#DejaVuSans-Bold-56" transform="translate(2281.703125 0)"/>
    <use xlink:href="#DejaVuSans-Bold-4c" transform="translate(2341.21875 0)"/>
    <use xlink:href="#DejaVuSans-Bold-44" transform="translate(2375.5 0)"/>
    <use xlink:href="#DejaVuSans-Bold-3" transform="translate(2442.984375 0)"/>
    <use xlink:href="#DejaVuSans-Bold-4b" transform="translate(2477.796875 0)"/>
    <use xlink:href="#DejaVuSans-Bold-44" transform="translate(2548.984375 0)"/>
    <use xlink:href="#DejaVuSans-Bold-55" transform="translate(2616.46875 0)"/>
    <use xlink:href="#DejaVuSans-Bold-47" transform="translate(2665.78125 0)"/>
    <use xlink:href="#DejaVuSans-Bold-3" transform="translate(2737.359375 0)"/>
    <use xlink:href="#DejaVuSans-Bold-13ab" transform="translate(2772.171875 0)"/>
    <use xlink:href="#DejaVuSans-Bold-4f" transform="translate(2846.296875 0)"/>
    <use xlink:href="#DejaVuSans-Bold-57" transform="translate(2880.578125 0)"/>
    <use xlink:href="#DejaVuSans-Bold-48" transform="translate(2928.375 0)"/>
    <use xlink:href="#DejaVuSans-Bold-55" transform="translate(2996.203125 0)"/>
   </g>
  </g>
 </g>
 <defs>
  <clipPath id="pf824b68466">
   <rect x="7.2" y="71.712" width="343.8" height="294.336"/>
  </clipPath>
  <clipPath id="p523370709f">
   <rect x="385.38" y="71.712" width="343.8" height="294.336"/>
  </clipPath>
  <clipPath id="pabb6a179d2">
   <rect x="763.56" y="71.712" width="343.8" height="294.336"/>
  </clipPath>
 </defs>
</svg>
